M48
;DRILL file {KiCad (5.0.0-rc2-dev-321-g78161b592)} date 04/15/18 21:02:16
;FORMAT={-:-/ absolute / inch / decimal}
FMAT,2
INCH,TZ
T1C0.0100
T2C0.0157
T3C0.0394
T4C0.0669
T5C0.1024
%
G90
G05
M72
T1
X5.02Y-2.82
X5.04Y-2.64
X5.3194Y-2.7394
X5.43Y-2.78
T2
X3.9915Y-2.7435
X4.0276Y-2.8189
X4.7283Y-2.5709
X4.8014Y-2.6553
T3
X3.5528Y-3.2874
X3.5528Y-3.3874
X3.6528Y-3.2874
X3.6528Y-3.3874
X3.7528Y-3.2874
X3.7528Y-3.3874
X3.8528Y-3.2874
X3.8528Y-3.3874
X3.9528Y-3.2874
X3.9528Y-3.3874
X4.0528Y-3.2874
X4.0528Y-3.3874
X4.1528Y-3.2874
X4.1528Y-3.3874
X4.2528Y-3.2874
X4.2528Y-3.3874
X4.3528Y-3.2874
X4.3528Y-3.3874
X4.4528Y-3.2874
X4.4528Y-3.3874
X4.5528Y-3.2874
X4.5528Y-3.3874
X4.6528Y-3.2874
X4.6528Y-3.3874
X4.7528Y-3.2874
X4.7528Y-3.3874
X4.8528Y-3.2874
X4.8528Y-3.3874
X4.9528Y-3.2874
X4.9528Y-3.3874
X5.0528Y-3.2874
X5.0528Y-3.3874
X5.1528Y-3.2874
X5.1528Y-3.3874
X5.2528Y-3.2874
X5.2528Y-3.3874
X5.3528Y-3.2874
X5.3528Y-3.3874
X5.4528Y-3.2874
X5.4528Y-3.3874
T4
X5.1Y-2.2572
T5
X4.9031Y-2.2572
X5.1Y-2.08
X5.2969Y-2.2572
T0
M30
