G04 #@! TF.GenerationSoftware,KiCad,Pcbnew,(5.0.0-rc2-dev-321-g78161b592)*
G04 #@! TF.CreationDate,2018-04-15T21:01:50-04:00*
G04 #@! TF.ProjectId,VideoDACRAM,566964656F44414352414D2E6B696361,rev?*
G04 #@! TF.SameCoordinates,Original*
G04 #@! TF.FileFunction,Soldermask,Top*
G04 #@! TF.FilePolarity,Negative*
%FSLAX46Y46*%
G04 Gerber Fmt 4.6, Leading zero omitted, Abs format (unit mm)*
G04 Created by KiCad (PCBNEW (5.0.0-rc2-dev-321-g78161b592)) date 04/15/18 21:01:50*
%MOMM*%
%LPD*%
G01*
G04 APERTURE LIST*
%ADD10C,2.800000*%
%ADD11C,3.800000*%
%ADD12R,1.900000X1.545000*%
%ADD13R,1.100000X0.800000*%
%ADD14R,2.100000X2.100000*%
%ADD15O,2.100000X2.100000*%
%ADD16R,1.545000X1.900000*%
%ADD17R,1.900000X0.800000*%
G04 APERTURE END LIST*
D10*
X129540000Y-57332000D03*
D11*
X129540000Y-52832000D03*
X134540000Y-57332000D03*
X124540000Y-57332000D03*
D12*
X103300000Y-67600000D03*
X103300000Y-69685000D03*
D13*
X106100000Y-60000000D03*
X106100000Y-60800000D03*
X106100000Y-61600000D03*
X106100000Y-62400000D03*
X106100000Y-63200000D03*
X106100000Y-64000000D03*
X106100000Y-64800000D03*
X106100000Y-65600000D03*
X106100000Y-66400000D03*
X106100000Y-67200000D03*
X106100000Y-68000000D03*
X106100000Y-68800000D03*
X106100000Y-69600000D03*
X106100000Y-70400000D03*
X106100000Y-71200000D03*
X106100000Y-72000000D03*
X106100000Y-72800000D03*
X106100000Y-73600000D03*
X106100000Y-74400000D03*
X106100000Y-75200000D03*
X106100000Y-76000000D03*
X106100000Y-76800000D03*
X117500000Y-76800000D03*
X117500000Y-76000000D03*
X117500000Y-75200000D03*
X117500000Y-74400000D03*
X117500000Y-73600000D03*
X117500000Y-72800000D03*
X117500000Y-72000000D03*
X117500000Y-71200000D03*
X117500000Y-70400000D03*
X117500000Y-69600000D03*
X117500000Y-68800000D03*
X117500000Y-68000000D03*
X117500000Y-67200000D03*
X117500000Y-66400000D03*
X117500000Y-65600000D03*
X117500000Y-64800000D03*
X117500000Y-64000000D03*
X117500000Y-63200000D03*
X117500000Y-62400000D03*
X117500000Y-61600000D03*
X117500000Y-60800000D03*
X117500000Y-60000000D03*
D12*
X130048000Y-72136000D03*
X130048000Y-74221000D03*
X132334000Y-74221000D03*
X132334000Y-72136000D03*
X135114000Y-66377500D03*
X135114000Y-68462500D03*
X120100000Y-69530000D03*
X120100000Y-67445000D03*
D14*
X138500000Y-83500000D03*
D15*
X138500000Y-86040000D03*
X135960000Y-83500000D03*
X135960000Y-86040000D03*
X133420000Y-83500000D03*
X133420000Y-86040000D03*
X130880000Y-83500000D03*
X130880000Y-86040000D03*
X128340000Y-83500000D03*
X128340000Y-86040000D03*
X125800000Y-83500000D03*
X125800000Y-86040000D03*
X123260000Y-83500000D03*
X123260000Y-86040000D03*
X120720000Y-83500000D03*
X120720000Y-86040000D03*
X118180000Y-83500000D03*
X118180000Y-86040000D03*
X115640000Y-83500000D03*
X115640000Y-86040000D03*
X113100000Y-83500000D03*
X113100000Y-86040000D03*
X110560000Y-83500000D03*
X110560000Y-86040000D03*
X108020000Y-83500000D03*
X108020000Y-86040000D03*
X105480000Y-83500000D03*
X105480000Y-86040000D03*
X102940000Y-83500000D03*
X102940000Y-86040000D03*
X100400000Y-83500000D03*
X100400000Y-86040000D03*
X97860000Y-83500000D03*
X97860000Y-86040000D03*
X95320000Y-83500000D03*
X95320000Y-86040000D03*
X92780000Y-83500000D03*
X92780000Y-86040000D03*
X90240000Y-83500000D03*
X90240000Y-86040000D03*
D12*
X127508000Y-68299500D03*
X127508000Y-70384500D03*
D16*
X134671500Y-70720000D03*
X136756500Y-70720000D03*
X130571500Y-69720000D03*
X132656500Y-69720000D03*
D12*
X137314000Y-68462500D03*
X137314000Y-66377500D03*
X129614000Y-64162500D03*
X129614000Y-62077500D03*
X127314000Y-62077500D03*
X127314000Y-64162500D03*
D17*
X129684000Y-66470000D03*
X129684000Y-67120000D03*
X129684000Y-67770000D03*
X132344000Y-67770000D03*
X132344000Y-67120000D03*
X132344000Y-66470000D03*
M02*
