G04 #@! TF.GenerationSoftware,KiCad,Pcbnew,(5.0.0-rc2-dev-321-g78161b592)*
G04 #@! TF.CreationDate,2018-04-15T21:01:50-04:00*
G04 #@! TF.ProjectId,VideoDACRAM,566964656F44414352414D2E6B696361,rev?*
G04 #@! TF.SameCoordinates,Original*
G04 #@! TF.FileFunction,Legend,Bot*
G04 #@! TF.FilePolarity,Positive*
%FSLAX46Y46*%
G04 Gerber Fmt 4.6, Leading zero omitted, Abs format (unit mm)*
G04 Created by KiCad (PCBNEW (5.0.0-rc2-dev-321-g78161b592)) date 04/15/18 21:01:50*
%MOMM*%
%LPD*%
G01*
G04 APERTURE LIST*
%ADD10C,0.300000*%
%ADD11C,0.010000*%
G04 APERTURE END LIST*
D10*
X120017142Y-53763571D02*
X119517142Y-55263571D01*
X119017142Y-53763571D01*
X118517142Y-55263571D02*
X118517142Y-54263571D01*
X118517142Y-53763571D02*
X118588571Y-53835000D01*
X118517142Y-53906428D01*
X118445714Y-53835000D01*
X118517142Y-53763571D01*
X118517142Y-53906428D01*
X117160000Y-55263571D02*
X117160000Y-53763571D01*
X117160000Y-55192142D02*
X117302857Y-55263571D01*
X117588571Y-55263571D01*
X117731428Y-55192142D01*
X117802857Y-55120714D01*
X117874285Y-54977857D01*
X117874285Y-54549285D01*
X117802857Y-54406428D01*
X117731428Y-54335000D01*
X117588571Y-54263571D01*
X117302857Y-54263571D01*
X117160000Y-54335000D01*
X115874285Y-55192142D02*
X116017142Y-55263571D01*
X116302857Y-55263571D01*
X116445714Y-55192142D01*
X116517142Y-55049285D01*
X116517142Y-54477857D01*
X116445714Y-54335000D01*
X116302857Y-54263571D01*
X116017142Y-54263571D01*
X115874285Y-54335000D01*
X115802857Y-54477857D01*
X115802857Y-54620714D01*
X116517142Y-54763571D01*
X114945714Y-55263571D02*
X115088571Y-55192142D01*
X115160000Y-55120714D01*
X115231428Y-54977857D01*
X115231428Y-54549285D01*
X115160000Y-54406428D01*
X115088571Y-54335000D01*
X114945714Y-54263571D01*
X114731428Y-54263571D01*
X114588571Y-54335000D01*
X114517142Y-54406428D01*
X114445714Y-54549285D01*
X114445714Y-54977857D01*
X114517142Y-55120714D01*
X114588571Y-55192142D01*
X114731428Y-55263571D01*
X114945714Y-55263571D01*
X112374285Y-53763571D02*
X112088571Y-53763571D01*
X111945714Y-53835000D01*
X111802857Y-53977857D01*
X111731428Y-54263571D01*
X111731428Y-54763571D01*
X111802857Y-55049285D01*
X111945714Y-55192142D01*
X112088571Y-55263571D01*
X112374285Y-55263571D01*
X112517142Y-55192142D01*
X112660000Y-55049285D01*
X112731428Y-54763571D01*
X112731428Y-54263571D01*
X112660000Y-53977857D01*
X112517142Y-53835000D01*
X112374285Y-53763571D01*
X110445714Y-54263571D02*
X110445714Y-55263571D01*
X111088571Y-54263571D02*
X111088571Y-55049285D01*
X111017142Y-55192142D01*
X110874285Y-55263571D01*
X110660000Y-55263571D01*
X110517142Y-55192142D01*
X110445714Y-55120714D01*
X109945714Y-54263571D02*
X109374285Y-54263571D01*
X109731428Y-53763571D02*
X109731428Y-55049285D01*
X109660000Y-55192142D01*
X109517142Y-55263571D01*
X109374285Y-55263571D01*
X108874285Y-54263571D02*
X108874285Y-55763571D01*
X108874285Y-54335000D02*
X108731428Y-54263571D01*
X108445714Y-54263571D01*
X108302857Y-54335000D01*
X108231428Y-54406428D01*
X108160000Y-54549285D01*
X108160000Y-54977857D01*
X108231428Y-55120714D01*
X108302857Y-55192142D01*
X108445714Y-55263571D01*
X108731428Y-55263571D01*
X108874285Y-55192142D01*
X106874285Y-54263571D02*
X106874285Y-55263571D01*
X107517142Y-54263571D02*
X107517142Y-55049285D01*
X107445714Y-55192142D01*
X107302857Y-55263571D01*
X107088571Y-55263571D01*
X106945714Y-55192142D01*
X106874285Y-55120714D01*
X106374285Y-54263571D02*
X105802857Y-54263571D01*
X106160000Y-53763571D02*
X106160000Y-55049285D01*
X106088571Y-55192142D01*
X105945714Y-55263571D01*
X105802857Y-55263571D01*
X104231428Y-54835000D02*
X103517142Y-54835000D01*
X104374285Y-55263571D02*
X103874285Y-53763571D01*
X103374285Y-55263571D01*
X102231428Y-55263571D02*
X102231428Y-53763571D01*
X102231428Y-55192142D02*
X102374285Y-55263571D01*
X102660000Y-55263571D01*
X102802857Y-55192142D01*
X102874285Y-55120714D01*
X102945714Y-54977857D01*
X102945714Y-54549285D01*
X102874285Y-54406428D01*
X102802857Y-54335000D01*
X102660000Y-54263571D01*
X102374285Y-54263571D01*
X102231428Y-54335000D01*
X100874285Y-55263571D02*
X100874285Y-54477857D01*
X100945714Y-54335000D01*
X101088571Y-54263571D01*
X101374285Y-54263571D01*
X101517142Y-54335000D01*
X100874285Y-55192142D02*
X101017142Y-55263571D01*
X101374285Y-55263571D01*
X101517142Y-55192142D01*
X101588571Y-55049285D01*
X101588571Y-54906428D01*
X101517142Y-54763571D01*
X101374285Y-54692142D01*
X101017142Y-54692142D01*
X100874285Y-54620714D01*
X100160000Y-54263571D02*
X100160000Y-55763571D01*
X100160000Y-54335000D02*
X100017142Y-54263571D01*
X99731428Y-54263571D01*
X99588571Y-54335000D01*
X99517142Y-54406428D01*
X99445714Y-54549285D01*
X99445714Y-54977857D01*
X99517142Y-55120714D01*
X99588571Y-55192142D01*
X99731428Y-55263571D01*
X100017142Y-55263571D01*
X100160000Y-55192142D01*
X99017142Y-54263571D02*
X98445714Y-54263571D01*
X98802857Y-53763571D02*
X98802857Y-55049285D01*
X98731428Y-55192142D01*
X98588571Y-55263571D01*
X98445714Y-55263571D01*
X97374285Y-55192142D02*
X97517142Y-55263571D01*
X97802857Y-55263571D01*
X97945714Y-55192142D01*
X98017142Y-55049285D01*
X98017142Y-54477857D01*
X97945714Y-54335000D01*
X97802857Y-54263571D01*
X97517142Y-54263571D01*
X97374285Y-54335000D01*
X97302857Y-54477857D01*
X97302857Y-54620714D01*
X98017142Y-54763571D01*
X96660000Y-55263571D02*
X96660000Y-54263571D01*
X96660000Y-54549285D02*
X96588571Y-54406428D01*
X96517142Y-54335000D01*
X96374285Y-54263571D01*
X96231428Y-54263571D01*
X94802857Y-54263571D02*
X94231428Y-54263571D01*
X94588571Y-55263571D02*
X94588571Y-53977857D01*
X94517142Y-53835000D01*
X94374285Y-53763571D01*
X94231428Y-53763571D01*
X93517142Y-55263571D02*
X93660000Y-55192142D01*
X93731428Y-55120714D01*
X93802857Y-54977857D01*
X93802857Y-54549285D01*
X93731428Y-54406428D01*
X93660000Y-54335000D01*
X93517142Y-54263571D01*
X93302857Y-54263571D01*
X93160000Y-54335000D01*
X93088571Y-54406428D01*
X93017142Y-54549285D01*
X93017142Y-54977857D01*
X93088571Y-55120714D01*
X93160000Y-55192142D01*
X93302857Y-55263571D01*
X93517142Y-55263571D01*
X92374285Y-55263571D02*
X92374285Y-54263571D01*
X92374285Y-54549285D02*
X92302857Y-54406428D01*
X92231428Y-54335000D01*
X92088571Y-54263571D01*
X91945714Y-54263571D01*
X120874285Y-57813571D02*
X121588571Y-57813571D01*
X121588571Y-56313571D01*
X119731428Y-57813571D02*
X119731428Y-57027857D01*
X119802857Y-56885000D01*
X119945714Y-56813571D01*
X120231428Y-56813571D01*
X120374285Y-56885000D01*
X119731428Y-57742142D02*
X119874285Y-57813571D01*
X120231428Y-57813571D01*
X120374285Y-57742142D01*
X120445714Y-57599285D01*
X120445714Y-57456428D01*
X120374285Y-57313571D01*
X120231428Y-57242142D01*
X119874285Y-57242142D01*
X119731428Y-57170714D01*
X119231428Y-56813571D02*
X118660000Y-56813571D01*
X119017142Y-56313571D02*
X119017142Y-57599285D01*
X118945714Y-57742142D01*
X118802857Y-57813571D01*
X118660000Y-57813571D01*
X118374285Y-56813571D02*
X117802857Y-56813571D01*
X118160000Y-56313571D02*
X118160000Y-57599285D01*
X118088571Y-57742142D01*
X117945714Y-57813571D01*
X117802857Y-57813571D01*
X117302857Y-57813571D02*
X117302857Y-56813571D01*
X117302857Y-56313571D02*
X117374285Y-56385000D01*
X117302857Y-56456428D01*
X117231428Y-56385000D01*
X117302857Y-56313571D01*
X117302857Y-56456428D01*
X115945714Y-57742142D02*
X116088571Y-57813571D01*
X116374285Y-57813571D01*
X116517142Y-57742142D01*
X116588571Y-57670714D01*
X116660000Y-57527857D01*
X116660000Y-57099285D01*
X116588571Y-56956428D01*
X116517142Y-56885000D01*
X116374285Y-56813571D01*
X116088571Y-56813571D01*
X115945714Y-56885000D01*
X114731428Y-57742142D02*
X114874285Y-57813571D01*
X115160000Y-57813571D01*
X115302857Y-57742142D01*
X115374285Y-57599285D01*
X115374285Y-57027857D01*
X115302857Y-56885000D01*
X115160000Y-56813571D01*
X114874285Y-56813571D01*
X114731428Y-56885000D01*
X114660000Y-57027857D01*
X114660000Y-57170714D01*
X115374285Y-57313571D01*
X112874285Y-57813571D02*
X112874285Y-56313571D01*
X112374285Y-57385000D01*
X111874285Y-56313571D01*
X111874285Y-57813571D01*
X110517142Y-57813571D02*
X110517142Y-57027857D01*
X110588571Y-56885000D01*
X110731428Y-56813571D01*
X111017142Y-56813571D01*
X111160000Y-56885000D01*
X110517142Y-57742142D02*
X110660000Y-57813571D01*
X111017142Y-57813571D01*
X111160000Y-57742142D01*
X111231428Y-57599285D01*
X111231428Y-57456428D01*
X111160000Y-57313571D01*
X111017142Y-57242142D01*
X110660000Y-57242142D01*
X110517142Y-57170714D01*
X109160000Y-57742142D02*
X109302857Y-57813571D01*
X109588571Y-57813571D01*
X109731428Y-57742142D01*
X109802857Y-57670714D01*
X109874285Y-57527857D01*
X109874285Y-57099285D01*
X109802857Y-56956428D01*
X109731428Y-56885000D01*
X109588571Y-56813571D01*
X109302857Y-56813571D01*
X109160000Y-56885000D01*
X108517142Y-57813571D02*
X108517142Y-56313571D01*
X107874285Y-57813571D02*
X107874285Y-57027857D01*
X107945714Y-56885000D01*
X108088571Y-56813571D01*
X108302857Y-56813571D01*
X108445714Y-56885000D01*
X108517142Y-56956428D01*
X107302857Y-56313571D02*
X106302857Y-57813571D01*
X106302857Y-56313571D02*
X107302857Y-57813571D01*
X105445714Y-56313571D02*
X105160000Y-56313571D01*
X105017142Y-56385000D01*
X104874285Y-56527857D01*
X104802857Y-56813571D01*
X104802857Y-57313571D01*
X104874285Y-57599285D01*
X105017142Y-57742142D01*
X105160000Y-57813571D01*
X105445714Y-57813571D01*
X105588571Y-57742142D01*
X105731428Y-57599285D01*
X105802857Y-57313571D01*
X105802857Y-56813571D01*
X105731428Y-56527857D01*
X105588571Y-56385000D01*
X105445714Y-56313571D01*
X103445714Y-57813571D02*
X104160000Y-57813571D01*
X104160000Y-56313571D01*
X103088571Y-56313571D02*
X102160000Y-56313571D01*
X102660000Y-56885000D01*
X102445714Y-56885000D01*
X102302857Y-56956428D01*
X102231428Y-57027857D01*
X102160000Y-57170714D01*
X102160000Y-57527857D01*
X102231428Y-57670714D01*
X102302857Y-57742142D01*
X102445714Y-57813571D01*
X102874285Y-57813571D01*
X103017142Y-57742142D01*
X103088571Y-57670714D01*
X100445714Y-57742142D02*
X100231428Y-57813571D01*
X99874285Y-57813571D01*
X99731428Y-57742142D01*
X99660000Y-57670714D01*
X99588571Y-57527857D01*
X99588571Y-57385000D01*
X99660000Y-57242142D01*
X99731428Y-57170714D01*
X99874285Y-57099285D01*
X100160000Y-57027857D01*
X100302857Y-56956428D01*
X100374285Y-56885000D01*
X100445714Y-56742142D01*
X100445714Y-56599285D01*
X100374285Y-56456428D01*
X100302857Y-56385000D01*
X100160000Y-56313571D01*
X99802857Y-56313571D01*
X99588571Y-56385000D01*
X99160000Y-56813571D02*
X98588571Y-56813571D01*
X98945714Y-56313571D02*
X98945714Y-57599285D01*
X98874285Y-57742142D01*
X98731428Y-57813571D01*
X98588571Y-57813571D01*
X97445714Y-57813571D02*
X97445714Y-57027857D01*
X97517142Y-56885000D01*
X97660000Y-56813571D01*
X97945714Y-56813571D01*
X98088571Y-56885000D01*
X97445714Y-57742142D02*
X97588571Y-57813571D01*
X97945714Y-57813571D01*
X98088571Y-57742142D01*
X98160000Y-57599285D01*
X98160000Y-57456428D01*
X98088571Y-57313571D01*
X97945714Y-57242142D01*
X97588571Y-57242142D01*
X97445714Y-57170714D01*
X96731428Y-57813571D02*
X96731428Y-56813571D01*
X96731428Y-57099285D02*
X96660000Y-56956428D01*
X96588571Y-56885000D01*
X96445714Y-56813571D01*
X96302857Y-56813571D01*
X96017142Y-56813571D02*
X95445714Y-56813571D01*
X95802857Y-56313571D02*
X95802857Y-57599285D01*
X95731428Y-57742142D01*
X95588571Y-57813571D01*
X95445714Y-57813571D01*
X94374285Y-57742142D02*
X94517142Y-57813571D01*
X94802857Y-57813571D01*
X94945714Y-57742142D01*
X95017142Y-57599285D01*
X95017142Y-57027857D01*
X94945714Y-56885000D01*
X94802857Y-56813571D01*
X94517142Y-56813571D01*
X94374285Y-56885000D01*
X94302857Y-57027857D01*
X94302857Y-57170714D01*
X95017142Y-57313571D01*
X93660000Y-57813571D02*
X93660000Y-56813571D01*
X93660000Y-57099285D02*
X93588571Y-56956428D01*
X93517142Y-56885000D01*
X93374285Y-56813571D01*
X93231428Y-56813571D01*
X91588571Y-57813571D02*
X91588571Y-56313571D01*
X90731428Y-57813571D02*
X91374285Y-56956428D01*
X90731428Y-56313571D02*
X91588571Y-57170714D01*
X90088571Y-57813571D02*
X90088571Y-56813571D01*
X90088571Y-56313571D02*
X90160000Y-56385000D01*
X90088571Y-56456428D01*
X90017142Y-56385000D01*
X90088571Y-56313571D01*
X90088571Y-56456428D01*
X89588571Y-56813571D02*
X89017142Y-56813571D01*
X89374285Y-56313571D02*
X89374285Y-57599285D01*
X89302857Y-57742142D01*
X89160000Y-57813571D01*
X89017142Y-57813571D01*
X110302857Y-59363571D02*
X110017142Y-60363571D01*
X109731428Y-59649285D01*
X109445714Y-60363571D01*
X109160000Y-59363571D01*
X107517142Y-58792142D02*
X108802857Y-60720714D01*
X105945714Y-60292142D02*
X105731428Y-60363571D01*
X105374285Y-60363571D01*
X105231428Y-60292142D01*
X105160000Y-60220714D01*
X105088571Y-60077857D01*
X105088571Y-59935000D01*
X105160000Y-59792142D01*
X105231428Y-59720714D01*
X105374285Y-59649285D01*
X105660000Y-59577857D01*
X105802857Y-59506428D01*
X105874285Y-59435000D01*
X105945714Y-59292142D01*
X105945714Y-59149285D01*
X105874285Y-59006428D01*
X105802857Y-58935000D01*
X105660000Y-58863571D01*
X105302857Y-58863571D01*
X105088571Y-58935000D01*
X103588571Y-60363571D02*
X104088571Y-59649285D01*
X104445714Y-60363571D02*
X104445714Y-58863571D01*
X103874285Y-58863571D01*
X103731428Y-58935000D01*
X103660000Y-59006428D01*
X103588571Y-59149285D01*
X103588571Y-59363571D01*
X103660000Y-59506428D01*
X103731428Y-59577857D01*
X103874285Y-59649285D01*
X104445714Y-59649285D01*
X103017142Y-59935000D02*
X102302857Y-59935000D01*
X103160000Y-60363571D02*
X102660000Y-58863571D01*
X102160000Y-60363571D01*
X101660000Y-60363571D02*
X101660000Y-58863571D01*
X101160000Y-59935000D01*
X100660000Y-58863571D01*
X100660000Y-60363571D01*
X115160000Y-65392142D02*
X114945714Y-65463571D01*
X114588571Y-65463571D01*
X114445714Y-65392142D01*
X114374285Y-65320714D01*
X114302857Y-65177857D01*
X114302857Y-65035000D01*
X114374285Y-64892142D01*
X114445714Y-64820714D01*
X114588571Y-64749285D01*
X114874285Y-64677857D01*
X115017142Y-64606428D01*
X115088571Y-64535000D01*
X115160000Y-64392142D01*
X115160000Y-64249285D01*
X115088571Y-64106428D01*
X115017142Y-64035000D01*
X114874285Y-63963571D01*
X114517142Y-63963571D01*
X114302857Y-64035000D01*
X113660000Y-65463571D02*
X113660000Y-63963571D01*
X113017142Y-65463571D02*
X113017142Y-64677857D01*
X113088571Y-64535000D01*
X113231428Y-64463571D01*
X113445714Y-64463571D01*
X113588571Y-64535000D01*
X113660000Y-64606428D01*
X111660000Y-65463571D02*
X111660000Y-64677857D01*
X111731428Y-64535000D01*
X111874285Y-64463571D01*
X112160000Y-64463571D01*
X112302857Y-64535000D01*
X111660000Y-65392142D02*
X111802857Y-65463571D01*
X112160000Y-65463571D01*
X112302857Y-65392142D01*
X112374285Y-65249285D01*
X112374285Y-65106428D01*
X112302857Y-64963571D01*
X112160000Y-64892142D01*
X111802857Y-64892142D01*
X111660000Y-64820714D01*
X111088571Y-64463571D02*
X110802857Y-65463571D01*
X110517142Y-64749285D01*
X110231428Y-65463571D01*
X109945714Y-64463571D01*
X109374285Y-64463571D02*
X109374285Y-65463571D01*
X109374285Y-64606428D02*
X109302857Y-64535000D01*
X109160000Y-64463571D01*
X108945714Y-64463571D01*
X108802857Y-64535000D01*
X108731428Y-64677857D01*
X108731428Y-65463571D01*
X106874285Y-65463571D02*
X106874285Y-63963571D01*
X106517142Y-63963571D01*
X106302857Y-64035000D01*
X106160000Y-64177857D01*
X106088571Y-64320714D01*
X106017142Y-64606428D01*
X106017142Y-64820714D01*
X106088571Y-65106428D01*
X106160000Y-65249285D01*
X106302857Y-65392142D01*
X106517142Y-65463571D01*
X106874285Y-65463571D01*
X105302857Y-63963571D02*
X105445714Y-64249285D01*
X104731428Y-65035000D02*
X104017142Y-65035000D01*
X104874285Y-65463571D02*
X104374285Y-63963571D01*
X103874285Y-65463571D01*
X103160000Y-65463571D02*
X103302857Y-65392142D01*
X103374285Y-65249285D01*
X103374285Y-63963571D01*
X102588571Y-65463571D02*
X102588571Y-64463571D01*
X102588571Y-63963571D02*
X102660000Y-64035000D01*
X102588571Y-64106428D01*
X102517142Y-64035000D01*
X102588571Y-63963571D01*
X102588571Y-64106428D01*
X101874285Y-65463571D02*
X101874285Y-64463571D01*
X101874285Y-64606428D02*
X101802857Y-64535000D01*
X101660000Y-64463571D01*
X101445714Y-64463571D01*
X101302857Y-64535000D01*
X101231428Y-64677857D01*
X101231428Y-65463571D01*
X101231428Y-64677857D02*
X101160000Y-64535000D01*
X101017142Y-64463571D01*
X100802857Y-64463571D01*
X100660000Y-64535000D01*
X100588571Y-64677857D01*
X100588571Y-65463571D01*
X99660000Y-65463571D02*
X99802857Y-65392142D01*
X99874285Y-65320714D01*
X99945714Y-65177857D01*
X99945714Y-64749285D01*
X99874285Y-64606428D01*
X99802857Y-64535000D01*
X99660000Y-64463571D01*
X99445714Y-64463571D01*
X99302857Y-64535000D01*
X99231428Y-64606428D01*
X99160000Y-64749285D01*
X99160000Y-65177857D01*
X99231428Y-65320714D01*
X99302857Y-65392142D01*
X99445714Y-65463571D01*
X99660000Y-65463571D01*
X98517142Y-64463571D02*
X98517142Y-65463571D01*
X98517142Y-64606428D02*
X98445714Y-64535000D01*
X98302857Y-64463571D01*
X98088571Y-64463571D01*
X97945714Y-64535000D01*
X97874285Y-64677857D01*
X97874285Y-65463571D01*
X97374285Y-64463571D02*
X96802857Y-64463571D01*
X97160000Y-63963571D02*
X97160000Y-65249285D01*
X97088571Y-65392142D01*
X96945714Y-65463571D01*
X96802857Y-65463571D01*
X95731428Y-65392142D02*
X95874285Y-65463571D01*
X96160000Y-65463571D01*
X96302857Y-65392142D01*
X96374285Y-65249285D01*
X96374285Y-64677857D01*
X96302857Y-64535000D01*
X96160000Y-64463571D01*
X95874285Y-64463571D01*
X95731428Y-64535000D01*
X95660000Y-64677857D01*
X95660000Y-64820714D01*
X96374285Y-64963571D01*
X116231428Y-68013571D02*
X116731428Y-67299285D01*
X117088571Y-68013571D02*
X117088571Y-66513571D01*
X116517142Y-66513571D01*
X116374285Y-66585000D01*
X116302857Y-66656428D01*
X116231428Y-66799285D01*
X116231428Y-67013571D01*
X116302857Y-67156428D01*
X116374285Y-67227857D01*
X116517142Y-67299285D01*
X117088571Y-67299285D01*
X115017142Y-67942142D02*
X115160000Y-68013571D01*
X115445714Y-68013571D01*
X115588571Y-67942142D01*
X115660000Y-67799285D01*
X115660000Y-67227857D01*
X115588571Y-67085000D01*
X115445714Y-67013571D01*
X115160000Y-67013571D01*
X115017142Y-67085000D01*
X114945714Y-67227857D01*
X114945714Y-67370714D01*
X115660000Y-67513571D01*
X114445714Y-67013571D02*
X114088571Y-68013571D01*
X113731428Y-67013571D01*
X111731428Y-66513571D02*
X111588571Y-66513571D01*
X111445714Y-66585000D01*
X111374285Y-66656428D01*
X111302857Y-66799285D01*
X111231428Y-67085000D01*
X111231428Y-67442142D01*
X111302857Y-67727857D01*
X111374285Y-67870714D01*
X111445714Y-67942142D01*
X111588571Y-68013571D01*
X111731428Y-68013571D01*
X111874285Y-67942142D01*
X111945714Y-67870714D01*
X112017142Y-67727857D01*
X112088571Y-67442142D01*
X112088571Y-67085000D01*
X112017142Y-66799285D01*
X111945714Y-66656428D01*
X111874285Y-66585000D01*
X111731428Y-66513571D01*
X110660000Y-67585000D02*
X109945714Y-67585000D01*
X110802857Y-68013571D02*
X110302857Y-66513571D01*
X109802857Y-68013571D01*
X108231428Y-66656428D02*
X108160000Y-66585000D01*
X108017142Y-66513571D01*
X107660000Y-66513571D01*
X107517142Y-66585000D01*
X107445714Y-66656428D01*
X107374285Y-66799285D01*
X107374285Y-66942142D01*
X107445714Y-67156428D01*
X108302857Y-68013571D01*
X107374285Y-68013571D01*
X106445714Y-66513571D02*
X106302857Y-66513571D01*
X106160000Y-66585000D01*
X106088571Y-66656428D01*
X106017142Y-66799285D01*
X105945714Y-67085000D01*
X105945714Y-67442142D01*
X106017142Y-67727857D01*
X106088571Y-67870714D01*
X106160000Y-67942142D01*
X106302857Y-68013571D01*
X106445714Y-68013571D01*
X106588571Y-67942142D01*
X106660000Y-67870714D01*
X106731428Y-67727857D01*
X106802857Y-67442142D01*
X106802857Y-67085000D01*
X106731428Y-66799285D01*
X106660000Y-66656428D01*
X106588571Y-66585000D01*
X106445714Y-66513571D01*
X104517142Y-68013571D02*
X105374285Y-68013571D01*
X104945714Y-68013571D02*
X104945714Y-66513571D01*
X105088571Y-66727857D01*
X105231428Y-66870714D01*
X105374285Y-66942142D01*
X103660000Y-67156428D02*
X103802857Y-67085000D01*
X103874285Y-67013571D01*
X103945714Y-66870714D01*
X103945714Y-66799285D01*
X103874285Y-66656428D01*
X103802857Y-66585000D01*
X103660000Y-66513571D01*
X103374285Y-66513571D01*
X103231428Y-66585000D01*
X103160000Y-66656428D01*
X103088571Y-66799285D01*
X103088571Y-66870714D01*
X103160000Y-67013571D01*
X103231428Y-67085000D01*
X103374285Y-67156428D01*
X103660000Y-67156428D01*
X103802857Y-67227857D01*
X103874285Y-67299285D01*
X103945714Y-67442142D01*
X103945714Y-67727857D01*
X103874285Y-67870714D01*
X103802857Y-67942142D01*
X103660000Y-68013571D01*
X103374285Y-68013571D01*
X103231428Y-67942142D01*
X103160000Y-67870714D01*
X103088571Y-67727857D01*
X103088571Y-67442142D01*
X103160000Y-67299285D01*
X103231428Y-67227857D01*
X103374285Y-67156428D01*
X102445714Y-67442142D02*
X101302857Y-67442142D01*
X100302857Y-66513571D02*
X100160000Y-66513571D01*
X100017142Y-66585000D01*
X99945714Y-66656428D01*
X99874285Y-66799285D01*
X99802857Y-67085000D01*
X99802857Y-67442142D01*
X99874285Y-67727857D01*
X99945714Y-67870714D01*
X100017142Y-67942142D01*
X100160000Y-68013571D01*
X100302857Y-68013571D01*
X100445714Y-67942142D01*
X100517142Y-67870714D01*
X100588571Y-67727857D01*
X100660000Y-67442142D01*
X100660000Y-67085000D01*
X100588571Y-66799285D01*
X100517142Y-66656428D01*
X100445714Y-66585000D01*
X100302857Y-66513571D01*
X98517142Y-67013571D02*
X98517142Y-68013571D01*
X98874285Y-66442142D02*
X99231428Y-67513571D01*
X98302857Y-67513571D01*
X97731428Y-67442142D02*
X96588571Y-67442142D01*
X95088571Y-68013571D02*
X95945714Y-68013571D01*
X95517142Y-68013571D02*
X95517142Y-66513571D01*
X95660000Y-66727857D01*
X95802857Y-66870714D01*
X95945714Y-66942142D01*
X93731428Y-66513571D02*
X94445714Y-66513571D01*
X94517142Y-67227857D01*
X94445714Y-67156428D01*
X94302857Y-67085000D01*
X93945714Y-67085000D01*
X93802857Y-67156428D01*
X93731428Y-67227857D01*
X93660000Y-67370714D01*
X93660000Y-67727857D01*
X93731428Y-67870714D01*
X93802857Y-67942142D01*
X93945714Y-68013571D01*
X94302857Y-68013571D01*
X94445714Y-67942142D01*
X94517142Y-67870714D01*
D11*
G36*
X92860090Y-69124348D02*
X92781546Y-69124778D01*
X92724702Y-69125942D01*
X92685895Y-69128207D01*
X92661462Y-69131940D01*
X92647738Y-69137506D01*
X92641060Y-69145273D01*
X92637764Y-69155605D01*
X92637444Y-69156943D01*
X92632438Y-69181079D01*
X92623171Y-69228701D01*
X92610608Y-69294741D01*
X92595713Y-69374128D01*
X92579449Y-69461796D01*
X92578881Y-69464875D01*
X92562590Y-69550789D01*
X92547348Y-69626696D01*
X92534139Y-69688045D01*
X92523946Y-69730282D01*
X92517752Y-69748855D01*
X92517457Y-69749184D01*
X92499212Y-69758253D01*
X92461595Y-69773367D01*
X92412729Y-69791262D01*
X92412457Y-69791358D01*
X92350907Y-69814493D01*
X92278343Y-69843965D01*
X92209943Y-69873597D01*
X92206706Y-69875062D01*
X92095298Y-69925626D01*
X91848601Y-69757160D01*
X91772923Y-69705803D01*
X91704369Y-69659889D01*
X91646912Y-69622030D01*
X91604524Y-69594837D01*
X91581175Y-69580921D01*
X91578958Y-69579889D01*
X91561990Y-69584484D01*
X91530299Y-69606655D01*
X91482648Y-69647447D01*
X91417802Y-69707905D01*
X91351603Y-69772227D01*
X91287786Y-69835612D01*
X91230671Y-69893451D01*
X91183695Y-69942175D01*
X91150297Y-69978210D01*
X91133915Y-69997984D01*
X91133306Y-69999002D01*
X91131495Y-70012572D01*
X91138317Y-70034733D01*
X91155460Y-70068478D01*
X91184607Y-70116800D01*
X91227445Y-70182692D01*
X91284552Y-70267517D01*
X91335234Y-70342177D01*
X91380539Y-70409140D01*
X91417850Y-70464516D01*
X91444548Y-70504420D01*
X91458015Y-70524962D01*
X91458863Y-70526356D01*
X91457219Y-70546038D01*
X91444755Y-70584293D01*
X91423952Y-70633889D01*
X91416538Y-70649728D01*
X91384186Y-70720290D01*
X91349672Y-70800353D01*
X91321635Y-70869629D01*
X91301432Y-70921045D01*
X91285385Y-70960119D01*
X91276112Y-70980541D01*
X91274959Y-70982114D01*
X91257904Y-70984721D01*
X91217702Y-70991863D01*
X91159698Y-71002523D01*
X91089237Y-71015685D01*
X91011665Y-71030333D01*
X90932328Y-71045449D01*
X90856569Y-71060018D01*
X90789736Y-71073022D01*
X90737172Y-71083445D01*
X90704224Y-71090270D01*
X90696143Y-71092199D01*
X90687795Y-71096962D01*
X90681494Y-71107718D01*
X90676955Y-71128098D01*
X90673896Y-71161734D01*
X90672033Y-71212255D01*
X90671082Y-71283292D01*
X90670760Y-71378476D01*
X90670743Y-71417492D01*
X90670743Y-71734799D01*
X90746943Y-71749839D01*
X90789337Y-71757995D01*
X90852600Y-71769899D01*
X90929038Y-71784116D01*
X91010957Y-71799210D01*
X91033600Y-71803355D01*
X91109194Y-71818053D01*
X91175047Y-71832505D01*
X91225634Y-71845375D01*
X91255426Y-71855322D01*
X91260388Y-71858287D01*
X91272574Y-71879283D01*
X91290047Y-71919967D01*
X91309423Y-71972322D01*
X91313266Y-71983600D01*
X91338661Y-72053523D01*
X91370183Y-72132418D01*
X91401031Y-72203266D01*
X91401183Y-72203595D01*
X91452553Y-72314733D01*
X91283601Y-72563253D01*
X91114648Y-72811772D01*
X91331571Y-73029058D01*
X91397181Y-73093726D01*
X91457021Y-73150733D01*
X91507733Y-73197033D01*
X91545954Y-73229584D01*
X91568325Y-73245343D01*
X91571534Y-73246343D01*
X91590374Y-73238469D01*
X91628820Y-73216578D01*
X91682670Y-73183267D01*
X91747724Y-73141131D01*
X91818060Y-73093943D01*
X91889445Y-73045810D01*
X91953092Y-73003928D01*
X92004959Y-72970871D01*
X92041005Y-72949218D01*
X92057133Y-72941543D01*
X92076811Y-72948037D01*
X92114125Y-72965150D01*
X92161379Y-72989326D01*
X92166388Y-72992013D01*
X92230023Y-73023927D01*
X92273659Y-73039579D01*
X92300798Y-73039745D01*
X92314943Y-73025204D01*
X92315025Y-73025000D01*
X92322095Y-73007779D01*
X92338958Y-72966899D01*
X92364305Y-72905525D01*
X92396829Y-72826819D01*
X92435222Y-72733947D01*
X92478178Y-72630072D01*
X92519778Y-72529502D01*
X92565496Y-72418516D01*
X92607474Y-72315703D01*
X92644452Y-72224215D01*
X92675173Y-72147201D01*
X92698378Y-72087815D01*
X92712810Y-72049209D01*
X92717257Y-72034800D01*
X92706104Y-72018272D01*
X92676931Y-71991930D01*
X92638029Y-71962887D01*
X92527243Y-71871039D01*
X92440649Y-71765759D01*
X92379284Y-71649266D01*
X92344185Y-71523776D01*
X92336392Y-71391507D01*
X92342057Y-71330457D01*
X92372922Y-71203795D01*
X92426080Y-71091941D01*
X92498233Y-70996001D01*
X92586083Y-70917076D01*
X92686335Y-70856270D01*
X92795690Y-70814687D01*
X92910853Y-70793428D01*
X93028525Y-70793599D01*
X93145410Y-70816301D01*
X93258211Y-70862638D01*
X93363631Y-70933713D01*
X93407632Y-70973911D01*
X93492021Y-71077129D01*
X93550778Y-71189925D01*
X93584296Y-71309010D01*
X93592965Y-71431095D01*
X93577177Y-71552893D01*
X93537322Y-71671116D01*
X93473793Y-71782475D01*
X93386979Y-71883684D01*
X93289971Y-71962887D01*
X93249563Y-71993162D01*
X93221018Y-72019219D01*
X93210743Y-72034825D01*
X93216123Y-72051843D01*
X93231425Y-72092500D01*
X93255388Y-72153642D01*
X93286756Y-72232119D01*
X93324268Y-72324780D01*
X93366667Y-72428472D01*
X93408337Y-72529526D01*
X93454310Y-72640607D01*
X93496893Y-72743541D01*
X93534779Y-72835165D01*
X93566660Y-72912316D01*
X93591229Y-72971831D01*
X93607180Y-73010544D01*
X93613090Y-73025000D01*
X93627052Y-73039685D01*
X93654060Y-73039642D01*
X93697587Y-73024099D01*
X93761110Y-72992284D01*
X93761612Y-72992013D01*
X93809440Y-72967323D01*
X93848103Y-72949338D01*
X93869905Y-72941614D01*
X93870867Y-72941543D01*
X93887279Y-72949378D01*
X93923513Y-72971165D01*
X93975526Y-73004328D01*
X94039275Y-73046291D01*
X94109940Y-73093943D01*
X94181884Y-73142191D01*
X94246726Y-73184151D01*
X94300265Y-73217227D01*
X94338303Y-73238821D01*
X94356467Y-73246343D01*
X94373192Y-73236457D01*
X94406820Y-73208826D01*
X94453990Y-73166495D01*
X94511342Y-73112505D01*
X94575516Y-73049899D01*
X94596503Y-73028983D01*
X94813501Y-72811623D01*
X94648332Y-72569220D01*
X94598136Y-72494781D01*
X94554081Y-72427972D01*
X94518638Y-72372665D01*
X94494281Y-72332729D01*
X94483478Y-72312036D01*
X94483162Y-72310563D01*
X94488857Y-72291058D01*
X94504174Y-72251822D01*
X94526463Y-72199430D01*
X94542107Y-72164355D01*
X94571359Y-72097201D01*
X94598906Y-72029358D01*
X94620263Y-71972034D01*
X94626065Y-71954572D01*
X94642548Y-71907938D01*
X94658660Y-71871905D01*
X94667510Y-71858287D01*
X94687040Y-71849952D01*
X94729666Y-71838137D01*
X94789855Y-71824181D01*
X94862078Y-71809422D01*
X94894400Y-71803355D01*
X94976478Y-71788273D01*
X95055205Y-71773669D01*
X95122891Y-71760980D01*
X95171840Y-71751642D01*
X95181057Y-71749839D01*
X95257257Y-71734799D01*
X95257257Y-71417492D01*
X95257086Y-71313154D01*
X95256384Y-71234213D01*
X95254866Y-71177038D01*
X95252251Y-71137999D01*
X95248254Y-71113465D01*
X95242591Y-71099805D01*
X95234980Y-71093389D01*
X95231857Y-71092199D01*
X95213022Y-71087980D01*
X95171412Y-71079562D01*
X95112370Y-71067961D01*
X95041243Y-71054195D01*
X94963375Y-71039280D01*
X94884113Y-71024232D01*
X94808802Y-71010069D01*
X94742787Y-70997806D01*
X94691413Y-70988461D01*
X94660025Y-70983050D01*
X94653041Y-70982114D01*
X94646715Y-70969596D01*
X94632710Y-70936246D01*
X94613645Y-70888377D01*
X94606366Y-70869629D01*
X94577004Y-70797195D01*
X94542429Y-70717170D01*
X94511463Y-70649728D01*
X94488677Y-70598159D01*
X94473518Y-70555785D01*
X94468458Y-70529834D01*
X94469264Y-70526356D01*
X94479959Y-70509936D01*
X94504380Y-70473417D01*
X94539905Y-70420687D01*
X94583913Y-70355635D01*
X94633783Y-70282151D01*
X94643644Y-70267645D01*
X94701508Y-70181704D01*
X94744044Y-70116261D01*
X94772946Y-70068304D01*
X94789910Y-70034820D01*
X94796633Y-70012795D01*
X94794810Y-69999217D01*
X94794764Y-69999131D01*
X94780414Y-69981297D01*
X94748677Y-69946817D01*
X94702990Y-69899268D01*
X94646796Y-69842222D01*
X94583532Y-69779255D01*
X94576398Y-69772227D01*
X94496670Y-69695020D01*
X94435143Y-69638330D01*
X94390579Y-69601110D01*
X94361743Y-69582315D01*
X94349042Y-69579889D01*
X94330506Y-69590471D01*
X94292039Y-69614916D01*
X94237614Y-69650612D01*
X94171202Y-69694947D01*
X94096775Y-69745311D01*
X94079399Y-69757160D01*
X93832703Y-69925626D01*
X93721294Y-69875062D01*
X93653543Y-69845595D01*
X93580817Y-69815959D01*
X93518297Y-69792330D01*
X93515543Y-69791358D01*
X93466640Y-69773457D01*
X93428943Y-69758320D01*
X93410575Y-69749210D01*
X93410544Y-69749184D01*
X93404715Y-69732717D01*
X93394808Y-69692219D01*
X93381805Y-69632242D01*
X93366691Y-69557340D01*
X93350448Y-69472064D01*
X93349119Y-69464875D01*
X93332825Y-69377014D01*
X93317867Y-69297260D01*
X93305209Y-69230681D01*
X93295814Y-69182347D01*
X93290646Y-69157325D01*
X93290556Y-69156943D01*
X93287411Y-69146299D01*
X93281296Y-69138262D01*
X93268547Y-69132467D01*
X93245500Y-69128547D01*
X93208491Y-69126135D01*
X93153856Y-69124865D01*
X93077933Y-69124371D01*
X92977056Y-69124286D01*
X92964000Y-69124286D01*
X92860090Y-69124348D01*
X92860090Y-69124348D01*
G37*
X92860090Y-69124348D02*
X92781546Y-69124778D01*
X92724702Y-69125942D01*
X92685895Y-69128207D01*
X92661462Y-69131940D01*
X92647738Y-69137506D01*
X92641060Y-69145273D01*
X92637764Y-69155605D01*
X92637444Y-69156943D01*
X92632438Y-69181079D01*
X92623171Y-69228701D01*
X92610608Y-69294741D01*
X92595713Y-69374128D01*
X92579449Y-69461796D01*
X92578881Y-69464875D01*
X92562590Y-69550789D01*
X92547348Y-69626696D01*
X92534139Y-69688045D01*
X92523946Y-69730282D01*
X92517752Y-69748855D01*
X92517457Y-69749184D01*
X92499212Y-69758253D01*
X92461595Y-69773367D01*
X92412729Y-69791262D01*
X92412457Y-69791358D01*
X92350907Y-69814493D01*
X92278343Y-69843965D01*
X92209943Y-69873597D01*
X92206706Y-69875062D01*
X92095298Y-69925626D01*
X91848601Y-69757160D01*
X91772923Y-69705803D01*
X91704369Y-69659889D01*
X91646912Y-69622030D01*
X91604524Y-69594837D01*
X91581175Y-69580921D01*
X91578958Y-69579889D01*
X91561990Y-69584484D01*
X91530299Y-69606655D01*
X91482648Y-69647447D01*
X91417802Y-69707905D01*
X91351603Y-69772227D01*
X91287786Y-69835612D01*
X91230671Y-69893451D01*
X91183695Y-69942175D01*
X91150297Y-69978210D01*
X91133915Y-69997984D01*
X91133306Y-69999002D01*
X91131495Y-70012572D01*
X91138317Y-70034733D01*
X91155460Y-70068478D01*
X91184607Y-70116800D01*
X91227445Y-70182692D01*
X91284552Y-70267517D01*
X91335234Y-70342177D01*
X91380539Y-70409140D01*
X91417850Y-70464516D01*
X91444548Y-70504420D01*
X91458015Y-70524962D01*
X91458863Y-70526356D01*
X91457219Y-70546038D01*
X91444755Y-70584293D01*
X91423952Y-70633889D01*
X91416538Y-70649728D01*
X91384186Y-70720290D01*
X91349672Y-70800353D01*
X91321635Y-70869629D01*
X91301432Y-70921045D01*
X91285385Y-70960119D01*
X91276112Y-70980541D01*
X91274959Y-70982114D01*
X91257904Y-70984721D01*
X91217702Y-70991863D01*
X91159698Y-71002523D01*
X91089237Y-71015685D01*
X91011665Y-71030333D01*
X90932328Y-71045449D01*
X90856569Y-71060018D01*
X90789736Y-71073022D01*
X90737172Y-71083445D01*
X90704224Y-71090270D01*
X90696143Y-71092199D01*
X90687795Y-71096962D01*
X90681494Y-71107718D01*
X90676955Y-71128098D01*
X90673896Y-71161734D01*
X90672033Y-71212255D01*
X90671082Y-71283292D01*
X90670760Y-71378476D01*
X90670743Y-71417492D01*
X90670743Y-71734799D01*
X90746943Y-71749839D01*
X90789337Y-71757995D01*
X90852600Y-71769899D01*
X90929038Y-71784116D01*
X91010957Y-71799210D01*
X91033600Y-71803355D01*
X91109194Y-71818053D01*
X91175047Y-71832505D01*
X91225634Y-71845375D01*
X91255426Y-71855322D01*
X91260388Y-71858287D01*
X91272574Y-71879283D01*
X91290047Y-71919967D01*
X91309423Y-71972322D01*
X91313266Y-71983600D01*
X91338661Y-72053523D01*
X91370183Y-72132418D01*
X91401031Y-72203266D01*
X91401183Y-72203595D01*
X91452553Y-72314733D01*
X91283601Y-72563253D01*
X91114648Y-72811772D01*
X91331571Y-73029058D01*
X91397181Y-73093726D01*
X91457021Y-73150733D01*
X91507733Y-73197033D01*
X91545954Y-73229584D01*
X91568325Y-73245343D01*
X91571534Y-73246343D01*
X91590374Y-73238469D01*
X91628820Y-73216578D01*
X91682670Y-73183267D01*
X91747724Y-73141131D01*
X91818060Y-73093943D01*
X91889445Y-73045810D01*
X91953092Y-73003928D01*
X92004959Y-72970871D01*
X92041005Y-72949218D01*
X92057133Y-72941543D01*
X92076811Y-72948037D01*
X92114125Y-72965150D01*
X92161379Y-72989326D01*
X92166388Y-72992013D01*
X92230023Y-73023927D01*
X92273659Y-73039579D01*
X92300798Y-73039745D01*
X92314943Y-73025204D01*
X92315025Y-73025000D01*
X92322095Y-73007779D01*
X92338958Y-72966899D01*
X92364305Y-72905525D01*
X92396829Y-72826819D01*
X92435222Y-72733947D01*
X92478178Y-72630072D01*
X92519778Y-72529502D01*
X92565496Y-72418516D01*
X92607474Y-72315703D01*
X92644452Y-72224215D01*
X92675173Y-72147201D01*
X92698378Y-72087815D01*
X92712810Y-72049209D01*
X92717257Y-72034800D01*
X92706104Y-72018272D01*
X92676931Y-71991930D01*
X92638029Y-71962887D01*
X92527243Y-71871039D01*
X92440649Y-71765759D01*
X92379284Y-71649266D01*
X92344185Y-71523776D01*
X92336392Y-71391507D01*
X92342057Y-71330457D01*
X92372922Y-71203795D01*
X92426080Y-71091941D01*
X92498233Y-70996001D01*
X92586083Y-70917076D01*
X92686335Y-70856270D01*
X92795690Y-70814687D01*
X92910853Y-70793428D01*
X93028525Y-70793599D01*
X93145410Y-70816301D01*
X93258211Y-70862638D01*
X93363631Y-70933713D01*
X93407632Y-70973911D01*
X93492021Y-71077129D01*
X93550778Y-71189925D01*
X93584296Y-71309010D01*
X93592965Y-71431095D01*
X93577177Y-71552893D01*
X93537322Y-71671116D01*
X93473793Y-71782475D01*
X93386979Y-71883684D01*
X93289971Y-71962887D01*
X93249563Y-71993162D01*
X93221018Y-72019219D01*
X93210743Y-72034825D01*
X93216123Y-72051843D01*
X93231425Y-72092500D01*
X93255388Y-72153642D01*
X93286756Y-72232119D01*
X93324268Y-72324780D01*
X93366667Y-72428472D01*
X93408337Y-72529526D01*
X93454310Y-72640607D01*
X93496893Y-72743541D01*
X93534779Y-72835165D01*
X93566660Y-72912316D01*
X93591229Y-72971831D01*
X93607180Y-73010544D01*
X93613090Y-73025000D01*
X93627052Y-73039685D01*
X93654060Y-73039642D01*
X93697587Y-73024099D01*
X93761110Y-72992284D01*
X93761612Y-72992013D01*
X93809440Y-72967323D01*
X93848103Y-72949338D01*
X93869905Y-72941614D01*
X93870867Y-72941543D01*
X93887279Y-72949378D01*
X93923513Y-72971165D01*
X93975526Y-73004328D01*
X94039275Y-73046291D01*
X94109940Y-73093943D01*
X94181884Y-73142191D01*
X94246726Y-73184151D01*
X94300265Y-73217227D01*
X94338303Y-73238821D01*
X94356467Y-73246343D01*
X94373192Y-73236457D01*
X94406820Y-73208826D01*
X94453990Y-73166495D01*
X94511342Y-73112505D01*
X94575516Y-73049899D01*
X94596503Y-73028983D01*
X94813501Y-72811623D01*
X94648332Y-72569220D01*
X94598136Y-72494781D01*
X94554081Y-72427972D01*
X94518638Y-72372665D01*
X94494281Y-72332729D01*
X94483478Y-72312036D01*
X94483162Y-72310563D01*
X94488857Y-72291058D01*
X94504174Y-72251822D01*
X94526463Y-72199430D01*
X94542107Y-72164355D01*
X94571359Y-72097201D01*
X94598906Y-72029358D01*
X94620263Y-71972034D01*
X94626065Y-71954572D01*
X94642548Y-71907938D01*
X94658660Y-71871905D01*
X94667510Y-71858287D01*
X94687040Y-71849952D01*
X94729666Y-71838137D01*
X94789855Y-71824181D01*
X94862078Y-71809422D01*
X94894400Y-71803355D01*
X94976478Y-71788273D01*
X95055205Y-71773669D01*
X95122891Y-71760980D01*
X95171840Y-71751642D01*
X95181057Y-71749839D01*
X95257257Y-71734799D01*
X95257257Y-71417492D01*
X95257086Y-71313154D01*
X95256384Y-71234213D01*
X95254866Y-71177038D01*
X95252251Y-71137999D01*
X95248254Y-71113465D01*
X95242591Y-71099805D01*
X95234980Y-71093389D01*
X95231857Y-71092199D01*
X95213022Y-71087980D01*
X95171412Y-71079562D01*
X95112370Y-71067961D01*
X95041243Y-71054195D01*
X94963375Y-71039280D01*
X94884113Y-71024232D01*
X94808802Y-71010069D01*
X94742787Y-70997806D01*
X94691413Y-70988461D01*
X94660025Y-70983050D01*
X94653041Y-70982114D01*
X94646715Y-70969596D01*
X94632710Y-70936246D01*
X94613645Y-70888377D01*
X94606366Y-70869629D01*
X94577004Y-70797195D01*
X94542429Y-70717170D01*
X94511463Y-70649728D01*
X94488677Y-70598159D01*
X94473518Y-70555785D01*
X94468458Y-70529834D01*
X94469264Y-70526356D01*
X94479959Y-70509936D01*
X94504380Y-70473417D01*
X94539905Y-70420687D01*
X94583913Y-70355635D01*
X94633783Y-70282151D01*
X94643644Y-70267645D01*
X94701508Y-70181704D01*
X94744044Y-70116261D01*
X94772946Y-70068304D01*
X94789910Y-70034820D01*
X94796633Y-70012795D01*
X94794810Y-69999217D01*
X94794764Y-69999131D01*
X94780414Y-69981297D01*
X94748677Y-69946817D01*
X94702990Y-69899268D01*
X94646796Y-69842222D01*
X94583532Y-69779255D01*
X94576398Y-69772227D01*
X94496670Y-69695020D01*
X94435143Y-69638330D01*
X94390579Y-69601110D01*
X94361743Y-69582315D01*
X94349042Y-69579889D01*
X94330506Y-69590471D01*
X94292039Y-69614916D01*
X94237614Y-69650612D01*
X94171202Y-69694947D01*
X94096775Y-69745311D01*
X94079399Y-69757160D01*
X93832703Y-69925626D01*
X93721294Y-69875062D01*
X93653543Y-69845595D01*
X93580817Y-69815959D01*
X93518297Y-69792330D01*
X93515543Y-69791358D01*
X93466640Y-69773457D01*
X93428943Y-69758320D01*
X93410575Y-69749210D01*
X93410544Y-69749184D01*
X93404715Y-69732717D01*
X93394808Y-69692219D01*
X93381805Y-69632242D01*
X93366691Y-69557340D01*
X93350448Y-69472064D01*
X93349119Y-69464875D01*
X93332825Y-69377014D01*
X93317867Y-69297260D01*
X93305209Y-69230681D01*
X93295814Y-69182347D01*
X93290646Y-69157325D01*
X93290556Y-69156943D01*
X93287411Y-69146299D01*
X93281296Y-69138262D01*
X93268547Y-69132467D01*
X93245500Y-69128547D01*
X93208491Y-69126135D01*
X93153856Y-69124865D01*
X93077933Y-69124371D01*
X92977056Y-69124286D01*
X92964000Y-69124286D01*
X92860090Y-69124348D01*
G36*
X89810405Y-73848966D02*
X89752979Y-73886497D01*
X89725281Y-73920096D01*
X89703338Y-73981064D01*
X89701595Y-74029308D01*
X89705543Y-74093816D01*
X89854314Y-74158934D01*
X89926651Y-74192202D01*
X89973916Y-74218964D01*
X89998493Y-74242144D01*
X90002763Y-74264667D01*
X89989111Y-74289455D01*
X89974057Y-74305886D01*
X89930254Y-74332235D01*
X89882611Y-74334081D01*
X89838855Y-74313546D01*
X89806711Y-74272752D01*
X89800962Y-74258347D01*
X89773424Y-74213356D01*
X89741742Y-74194182D01*
X89698286Y-74177779D01*
X89698286Y-74239966D01*
X89702128Y-74282283D01*
X89717177Y-74317969D01*
X89748720Y-74358943D01*
X89753408Y-74364267D01*
X89788494Y-74400720D01*
X89818653Y-74420283D01*
X89856385Y-74429283D01*
X89887665Y-74432230D01*
X89943615Y-74432965D01*
X89983445Y-74423660D01*
X90008292Y-74409846D01*
X90047344Y-74379467D01*
X90074375Y-74346613D01*
X90091483Y-74305294D01*
X90100762Y-74249521D01*
X90104307Y-74173305D01*
X90104590Y-74134622D01*
X90103628Y-74088247D01*
X90015993Y-74088247D01*
X90014977Y-74113126D01*
X90012444Y-74117200D01*
X89995726Y-74111665D01*
X89959751Y-74097017D01*
X89911669Y-74076190D01*
X89901614Y-74071714D01*
X89840848Y-74040814D01*
X89807368Y-74013657D01*
X89800010Y-73988220D01*
X89817609Y-73962481D01*
X89832144Y-73951109D01*
X89884590Y-73928364D01*
X89933678Y-73932122D01*
X89974773Y-73959884D01*
X90003242Y-74009152D01*
X90012369Y-74048257D01*
X90015993Y-74088247D01*
X90103628Y-74088247D01*
X90102715Y-74044249D01*
X90095804Y-73977384D01*
X90082116Y-73928695D01*
X90059904Y-73892849D01*
X90027426Y-73864513D01*
X90013267Y-73855355D01*
X89948947Y-73831507D01*
X89878527Y-73830006D01*
X89810405Y-73848966D01*
X89810405Y-73848966D01*
G37*
X89810405Y-73848966D02*
X89752979Y-73886497D01*
X89725281Y-73920096D01*
X89703338Y-73981064D01*
X89701595Y-74029308D01*
X89705543Y-74093816D01*
X89854314Y-74158934D01*
X89926651Y-74192202D01*
X89973916Y-74218964D01*
X89998493Y-74242144D01*
X90002763Y-74264667D01*
X89989111Y-74289455D01*
X89974057Y-74305886D01*
X89930254Y-74332235D01*
X89882611Y-74334081D01*
X89838855Y-74313546D01*
X89806711Y-74272752D01*
X89800962Y-74258347D01*
X89773424Y-74213356D01*
X89741742Y-74194182D01*
X89698286Y-74177779D01*
X89698286Y-74239966D01*
X89702128Y-74282283D01*
X89717177Y-74317969D01*
X89748720Y-74358943D01*
X89753408Y-74364267D01*
X89788494Y-74400720D01*
X89818653Y-74420283D01*
X89856385Y-74429283D01*
X89887665Y-74432230D01*
X89943615Y-74432965D01*
X89983445Y-74423660D01*
X90008292Y-74409846D01*
X90047344Y-74379467D01*
X90074375Y-74346613D01*
X90091483Y-74305294D01*
X90100762Y-74249521D01*
X90104307Y-74173305D01*
X90104590Y-74134622D01*
X90103628Y-74088247D01*
X90015993Y-74088247D01*
X90014977Y-74113126D01*
X90012444Y-74117200D01*
X89995726Y-74111665D01*
X89959751Y-74097017D01*
X89911669Y-74076190D01*
X89901614Y-74071714D01*
X89840848Y-74040814D01*
X89807368Y-74013657D01*
X89800010Y-73988220D01*
X89817609Y-73962481D01*
X89832144Y-73951109D01*
X89884590Y-73928364D01*
X89933678Y-73932122D01*
X89974773Y-73959884D01*
X90003242Y-74009152D01*
X90012369Y-74048257D01*
X90015993Y-74088247D01*
X90103628Y-74088247D01*
X90102715Y-74044249D01*
X90095804Y-73977384D01*
X90082116Y-73928695D01*
X90059904Y-73892849D01*
X90027426Y-73864513D01*
X90013267Y-73855355D01*
X89948947Y-73831507D01*
X89878527Y-73830006D01*
X89810405Y-73848966D01*
G36*
X90311400Y-73840752D02*
X90294052Y-73848334D01*
X90252644Y-73881128D01*
X90217235Y-73928547D01*
X90195336Y-73979151D01*
X90191771Y-74004098D01*
X90203721Y-74038927D01*
X90229933Y-74057357D01*
X90258036Y-74068516D01*
X90270905Y-74070572D01*
X90277171Y-74055649D01*
X90289544Y-74023175D01*
X90294972Y-74008502D01*
X90325410Y-73957744D01*
X90369480Y-73932427D01*
X90425990Y-73933206D01*
X90430175Y-73934203D01*
X90460345Y-73948507D01*
X90482524Y-73976393D01*
X90497673Y-74021287D01*
X90506750Y-74086615D01*
X90510714Y-74175804D01*
X90511086Y-74223261D01*
X90511270Y-74298071D01*
X90512478Y-74349069D01*
X90515691Y-74381471D01*
X90521891Y-74400495D01*
X90532060Y-74411356D01*
X90547181Y-74419272D01*
X90548054Y-74419670D01*
X90577172Y-74431981D01*
X90591597Y-74436514D01*
X90593814Y-74422809D01*
X90595711Y-74384925D01*
X90597153Y-74327715D01*
X90598002Y-74256027D01*
X90598171Y-74203565D01*
X90597308Y-74102047D01*
X90593930Y-74025032D01*
X90586858Y-73968023D01*
X90574912Y-73926526D01*
X90556910Y-73896043D01*
X90531673Y-73872080D01*
X90506753Y-73855355D01*
X90446829Y-73833097D01*
X90377089Y-73828076D01*
X90311400Y-73840752D01*
X90311400Y-73840752D01*
G37*
X90311400Y-73840752D02*
X90294052Y-73848334D01*
X90252644Y-73881128D01*
X90217235Y-73928547D01*
X90195336Y-73979151D01*
X90191771Y-74004098D01*
X90203721Y-74038927D01*
X90229933Y-74057357D01*
X90258036Y-74068516D01*
X90270905Y-74070572D01*
X90277171Y-74055649D01*
X90289544Y-74023175D01*
X90294972Y-74008502D01*
X90325410Y-73957744D01*
X90369480Y-73932427D01*
X90425990Y-73933206D01*
X90430175Y-73934203D01*
X90460345Y-73948507D01*
X90482524Y-73976393D01*
X90497673Y-74021287D01*
X90506750Y-74086615D01*
X90510714Y-74175804D01*
X90511086Y-74223261D01*
X90511270Y-74298071D01*
X90512478Y-74349069D01*
X90515691Y-74381471D01*
X90521891Y-74400495D01*
X90532060Y-74411356D01*
X90547181Y-74419272D01*
X90548054Y-74419670D01*
X90577172Y-74431981D01*
X90591597Y-74436514D01*
X90593814Y-74422809D01*
X90595711Y-74384925D01*
X90597153Y-74327715D01*
X90598002Y-74256027D01*
X90598171Y-74203565D01*
X90597308Y-74102047D01*
X90593930Y-74025032D01*
X90586858Y-73968023D01*
X90574912Y-73926526D01*
X90556910Y-73896043D01*
X90531673Y-73872080D01*
X90506753Y-73855355D01*
X90446829Y-73833097D01*
X90377089Y-73828076D01*
X90311400Y-73840752D01*
G36*
X90819124Y-73838335D02*
X90777333Y-73857344D01*
X90744531Y-73880378D01*
X90720497Y-73906133D01*
X90703903Y-73939358D01*
X90693423Y-73984800D01*
X90687729Y-74047207D01*
X90685493Y-74131327D01*
X90685257Y-74186721D01*
X90685257Y-74402826D01*
X90722226Y-74419670D01*
X90751344Y-74431981D01*
X90765769Y-74436514D01*
X90768528Y-74423025D01*
X90770718Y-74386653D01*
X90772058Y-74333542D01*
X90772343Y-74291372D01*
X90773566Y-74230447D01*
X90776864Y-74182115D01*
X90781679Y-74152518D01*
X90785504Y-74146229D01*
X90811217Y-74152652D01*
X90851582Y-74169125D01*
X90898321Y-74191458D01*
X90943155Y-74215457D01*
X90977807Y-74236930D01*
X90993998Y-74251685D01*
X90994062Y-74251845D01*
X90992670Y-74279152D01*
X90980182Y-74305219D01*
X90958257Y-74326392D01*
X90926257Y-74333474D01*
X90898908Y-74332649D01*
X90860174Y-74332042D01*
X90839842Y-74341116D01*
X90827631Y-74365092D01*
X90826091Y-74369613D01*
X90820797Y-74403806D01*
X90834953Y-74424568D01*
X90871852Y-74434462D01*
X90911711Y-74436292D01*
X90983438Y-74422727D01*
X91020568Y-74403355D01*
X91066424Y-74357845D01*
X91090744Y-74301983D01*
X91092927Y-74242957D01*
X91072371Y-74187953D01*
X91041451Y-74153486D01*
X91010580Y-74134189D01*
X90962058Y-74109759D01*
X90905515Y-74084985D01*
X90896090Y-74081199D01*
X90833981Y-74053791D01*
X90798178Y-74029634D01*
X90786663Y-74005619D01*
X90797420Y-73978635D01*
X90815886Y-73957543D01*
X90859531Y-73931572D01*
X90907554Y-73929624D01*
X90951594Y-73949637D01*
X90983291Y-73989551D01*
X90987451Y-73999848D01*
X91011673Y-74037724D01*
X91047035Y-74065842D01*
X91091657Y-74088917D01*
X91091657Y-74023485D01*
X91089031Y-73983506D01*
X91077770Y-73951997D01*
X91052801Y-73918378D01*
X91028831Y-73892484D01*
X90991559Y-73855817D01*
X90962599Y-73836121D01*
X90931495Y-73828220D01*
X90896287Y-73826914D01*
X90819124Y-73838335D01*
X90819124Y-73838335D01*
G37*
X90819124Y-73838335D02*
X90777333Y-73857344D01*
X90744531Y-73880378D01*
X90720497Y-73906133D01*
X90703903Y-73939358D01*
X90693423Y-73984800D01*
X90687729Y-74047207D01*
X90685493Y-74131327D01*
X90685257Y-74186721D01*
X90685257Y-74402826D01*
X90722226Y-74419670D01*
X90751344Y-74431981D01*
X90765769Y-74436514D01*
X90768528Y-74423025D01*
X90770718Y-74386653D01*
X90772058Y-74333542D01*
X90772343Y-74291372D01*
X90773566Y-74230447D01*
X90776864Y-74182115D01*
X90781679Y-74152518D01*
X90785504Y-74146229D01*
X90811217Y-74152652D01*
X90851582Y-74169125D01*
X90898321Y-74191458D01*
X90943155Y-74215457D01*
X90977807Y-74236930D01*
X90993998Y-74251685D01*
X90994062Y-74251845D01*
X90992670Y-74279152D01*
X90980182Y-74305219D01*
X90958257Y-74326392D01*
X90926257Y-74333474D01*
X90898908Y-74332649D01*
X90860174Y-74332042D01*
X90839842Y-74341116D01*
X90827631Y-74365092D01*
X90826091Y-74369613D01*
X90820797Y-74403806D01*
X90834953Y-74424568D01*
X90871852Y-74434462D01*
X90911711Y-74436292D01*
X90983438Y-74422727D01*
X91020568Y-74403355D01*
X91066424Y-74357845D01*
X91090744Y-74301983D01*
X91092927Y-74242957D01*
X91072371Y-74187953D01*
X91041451Y-74153486D01*
X91010580Y-74134189D01*
X90962058Y-74109759D01*
X90905515Y-74084985D01*
X90896090Y-74081199D01*
X90833981Y-74053791D01*
X90798178Y-74029634D01*
X90786663Y-74005619D01*
X90797420Y-73978635D01*
X90815886Y-73957543D01*
X90859531Y-73931572D01*
X90907554Y-73929624D01*
X90951594Y-73949637D01*
X90983291Y-73989551D01*
X90987451Y-73999848D01*
X91011673Y-74037724D01*
X91047035Y-74065842D01*
X91091657Y-74088917D01*
X91091657Y-74023485D01*
X91089031Y-73983506D01*
X91077770Y-73951997D01*
X91052801Y-73918378D01*
X91028831Y-73892484D01*
X90991559Y-73855817D01*
X90962599Y-73836121D01*
X90931495Y-73828220D01*
X90896287Y-73826914D01*
X90819124Y-73838335D01*
G36*
X91184167Y-73840663D02*
X91181952Y-73878850D01*
X91180216Y-73936886D01*
X91179101Y-74010180D01*
X91178743Y-74087055D01*
X91178743Y-74347196D01*
X91224674Y-74393127D01*
X91256325Y-74421429D01*
X91284110Y-74432893D01*
X91322085Y-74432168D01*
X91337160Y-74430321D01*
X91384274Y-74424948D01*
X91423244Y-74421869D01*
X91432743Y-74421585D01*
X91464767Y-74423445D01*
X91510568Y-74428114D01*
X91528326Y-74430321D01*
X91571943Y-74433735D01*
X91601255Y-74426320D01*
X91630320Y-74403427D01*
X91640812Y-74393127D01*
X91686743Y-74347196D01*
X91686743Y-73860602D01*
X91649774Y-73843758D01*
X91617941Y-73831282D01*
X91599317Y-73826914D01*
X91594542Y-73840718D01*
X91590079Y-73879286D01*
X91586225Y-73938356D01*
X91583278Y-74013663D01*
X91581857Y-74077286D01*
X91577886Y-74327657D01*
X91543241Y-74332556D01*
X91511732Y-74329131D01*
X91496292Y-74318041D01*
X91491977Y-74297308D01*
X91488292Y-74253145D01*
X91485531Y-74191146D01*
X91483988Y-74116909D01*
X91483765Y-74078706D01*
X91483543Y-73858783D01*
X91437834Y-73842849D01*
X91405482Y-73832015D01*
X91387885Y-73826962D01*
X91387377Y-73826914D01*
X91385612Y-73840648D01*
X91383671Y-73878730D01*
X91381718Y-73936482D01*
X91379916Y-74009227D01*
X91378657Y-74077286D01*
X91374686Y-74327657D01*
X91287600Y-74327657D01*
X91283604Y-74099240D01*
X91279608Y-73870822D01*
X91237153Y-73848868D01*
X91205808Y-73833793D01*
X91187256Y-73826951D01*
X91186721Y-73826914D01*
X91184167Y-73840663D01*
X91184167Y-73840663D01*
G37*
X91184167Y-73840663D02*
X91181952Y-73878850D01*
X91180216Y-73936886D01*
X91179101Y-74010180D01*
X91178743Y-74087055D01*
X91178743Y-74347196D01*
X91224674Y-74393127D01*
X91256325Y-74421429D01*
X91284110Y-74432893D01*
X91322085Y-74432168D01*
X91337160Y-74430321D01*
X91384274Y-74424948D01*
X91423244Y-74421869D01*
X91432743Y-74421585D01*
X91464767Y-74423445D01*
X91510568Y-74428114D01*
X91528326Y-74430321D01*
X91571943Y-74433735D01*
X91601255Y-74426320D01*
X91630320Y-74403427D01*
X91640812Y-74393127D01*
X91686743Y-74347196D01*
X91686743Y-73860602D01*
X91649774Y-73843758D01*
X91617941Y-73831282D01*
X91599317Y-73826914D01*
X91594542Y-73840718D01*
X91590079Y-73879286D01*
X91586225Y-73938356D01*
X91583278Y-74013663D01*
X91581857Y-74077286D01*
X91577886Y-74327657D01*
X91543241Y-74332556D01*
X91511732Y-74329131D01*
X91496292Y-74318041D01*
X91491977Y-74297308D01*
X91488292Y-74253145D01*
X91485531Y-74191146D01*
X91483988Y-74116909D01*
X91483765Y-74078706D01*
X91483543Y-73858783D01*
X91437834Y-73842849D01*
X91405482Y-73832015D01*
X91387885Y-73826962D01*
X91387377Y-73826914D01*
X91385612Y-73840648D01*
X91383671Y-73878730D01*
X91381718Y-73936482D01*
X91379916Y-74009227D01*
X91378657Y-74077286D01*
X91374686Y-74327657D01*
X91287600Y-74327657D01*
X91283604Y-74099240D01*
X91279608Y-73870822D01*
X91237153Y-73848868D01*
X91205808Y-73833793D01*
X91187256Y-73826951D01*
X91186721Y-73826914D01*
X91184167Y-73840663D01*
G36*
X91773883Y-73947358D02*
X91774067Y-74055837D01*
X91774781Y-74139287D01*
X91776325Y-74201704D01*
X91778999Y-74247085D01*
X91783106Y-74279429D01*
X91788945Y-74302733D01*
X91796818Y-74320995D01*
X91802779Y-74331418D01*
X91852145Y-74387945D01*
X91914736Y-74423377D01*
X91983987Y-74436090D01*
X92053332Y-74424463D01*
X92094625Y-74403568D01*
X92137975Y-74367422D01*
X92167519Y-74323276D01*
X92185345Y-74265462D01*
X92193537Y-74188313D01*
X92194698Y-74131714D01*
X92194542Y-74127647D01*
X92093143Y-74127647D01*
X92092524Y-74192550D01*
X92089686Y-74235514D01*
X92083160Y-74263622D01*
X92071477Y-74283953D01*
X92057517Y-74299288D01*
X92010635Y-74328890D01*
X91960299Y-74331419D01*
X91912724Y-74306705D01*
X91909021Y-74303356D01*
X91893217Y-74285935D01*
X91883307Y-74265209D01*
X91877942Y-74234362D01*
X91875772Y-74186577D01*
X91875429Y-74133748D01*
X91876173Y-74067381D01*
X91879252Y-74023106D01*
X91885939Y-73994009D01*
X91897504Y-73973173D01*
X91906987Y-73962107D01*
X91951040Y-73934198D01*
X92001776Y-73930843D01*
X92050204Y-73952159D01*
X92059550Y-73960073D01*
X92075460Y-73977647D01*
X92085390Y-73998587D01*
X92090722Y-74029782D01*
X92092837Y-74078122D01*
X92093143Y-74127647D01*
X92194542Y-74127647D01*
X92191190Y-74040568D01*
X92179274Y-73972086D01*
X92156865Y-73920600D01*
X92121876Y-73880443D01*
X92094625Y-73859861D01*
X92045093Y-73837625D01*
X91987684Y-73827304D01*
X91934318Y-73830067D01*
X91904457Y-73841212D01*
X91892739Y-73844383D01*
X91884963Y-73832557D01*
X91879535Y-73800866D01*
X91875429Y-73752593D01*
X91870933Y-73698829D01*
X91864687Y-73666482D01*
X91853324Y-73647985D01*
X91833472Y-73635770D01*
X91821000Y-73630362D01*
X91773829Y-73610601D01*
X91773883Y-73947358D01*
X91773883Y-73947358D01*
G37*
X91773883Y-73947358D02*
X91774067Y-74055837D01*
X91774781Y-74139287D01*
X91776325Y-74201704D01*
X91778999Y-74247085D01*
X91783106Y-74279429D01*
X91788945Y-74302733D01*
X91796818Y-74320995D01*
X91802779Y-74331418D01*
X91852145Y-74387945D01*
X91914736Y-74423377D01*
X91983987Y-74436090D01*
X92053332Y-74424463D01*
X92094625Y-74403568D01*
X92137975Y-74367422D01*
X92167519Y-74323276D01*
X92185345Y-74265462D01*
X92193537Y-74188313D01*
X92194698Y-74131714D01*
X92194542Y-74127647D01*
X92093143Y-74127647D01*
X92092524Y-74192550D01*
X92089686Y-74235514D01*
X92083160Y-74263622D01*
X92071477Y-74283953D01*
X92057517Y-74299288D01*
X92010635Y-74328890D01*
X91960299Y-74331419D01*
X91912724Y-74306705D01*
X91909021Y-74303356D01*
X91893217Y-74285935D01*
X91883307Y-74265209D01*
X91877942Y-74234362D01*
X91875772Y-74186577D01*
X91875429Y-74133748D01*
X91876173Y-74067381D01*
X91879252Y-74023106D01*
X91885939Y-73994009D01*
X91897504Y-73973173D01*
X91906987Y-73962107D01*
X91951040Y-73934198D01*
X92001776Y-73930843D01*
X92050204Y-73952159D01*
X92059550Y-73960073D01*
X92075460Y-73977647D01*
X92085390Y-73998587D01*
X92090722Y-74029782D01*
X92092837Y-74078122D01*
X92093143Y-74127647D01*
X92194542Y-74127647D01*
X92191190Y-74040568D01*
X92179274Y-73972086D01*
X92156865Y-73920600D01*
X92121876Y-73880443D01*
X92094625Y-73859861D01*
X92045093Y-73837625D01*
X91987684Y-73827304D01*
X91934318Y-73830067D01*
X91904457Y-73841212D01*
X91892739Y-73844383D01*
X91884963Y-73832557D01*
X91879535Y-73800866D01*
X91875429Y-73752593D01*
X91870933Y-73698829D01*
X91864687Y-73666482D01*
X91853324Y-73647985D01*
X91833472Y-73635770D01*
X91821000Y-73630362D01*
X91773829Y-73610601D01*
X91773883Y-73947358D01*
G36*
X92434074Y-73831755D02*
X92368142Y-73856084D01*
X92314727Y-73899117D01*
X92293836Y-73929409D01*
X92271061Y-73984994D01*
X92271534Y-74025186D01*
X92295438Y-74052217D01*
X92304283Y-74056813D01*
X92342470Y-74071144D01*
X92361972Y-74067472D01*
X92368578Y-74043407D01*
X92368914Y-74030114D01*
X92381008Y-73981210D01*
X92412529Y-73946999D01*
X92456341Y-73930476D01*
X92505305Y-73934634D01*
X92545106Y-73956227D01*
X92558550Y-73968544D01*
X92568079Y-73983487D01*
X92574515Y-74006075D01*
X92578683Y-74041328D01*
X92581403Y-74094266D01*
X92583498Y-74169907D01*
X92584040Y-74193857D01*
X92586019Y-74275790D01*
X92588269Y-74333455D01*
X92591643Y-74371608D01*
X92596994Y-74395004D01*
X92605176Y-74408398D01*
X92617041Y-74416545D01*
X92624638Y-74420144D01*
X92656898Y-74432452D01*
X92675889Y-74436514D01*
X92682164Y-74422948D01*
X92685994Y-74381934D01*
X92687400Y-74312999D01*
X92686402Y-74215669D01*
X92686092Y-74200657D01*
X92683899Y-74111859D01*
X92681307Y-74047019D01*
X92677618Y-74001067D01*
X92672136Y-73968935D01*
X92664165Y-73945553D01*
X92653007Y-73925852D01*
X92647170Y-73917410D01*
X92613704Y-73880057D01*
X92576273Y-73851003D01*
X92571691Y-73848467D01*
X92504574Y-73828443D01*
X92434074Y-73831755D01*
X92434074Y-73831755D01*
G37*
X92434074Y-73831755D02*
X92368142Y-73856084D01*
X92314727Y-73899117D01*
X92293836Y-73929409D01*
X92271061Y-73984994D01*
X92271534Y-74025186D01*
X92295438Y-74052217D01*
X92304283Y-74056813D01*
X92342470Y-74071144D01*
X92361972Y-74067472D01*
X92368578Y-74043407D01*
X92368914Y-74030114D01*
X92381008Y-73981210D01*
X92412529Y-73946999D01*
X92456341Y-73930476D01*
X92505305Y-73934634D01*
X92545106Y-73956227D01*
X92558550Y-73968544D01*
X92568079Y-73983487D01*
X92574515Y-74006075D01*
X92578683Y-74041328D01*
X92581403Y-74094266D01*
X92583498Y-74169907D01*
X92584040Y-74193857D01*
X92586019Y-74275790D01*
X92588269Y-74333455D01*
X92591643Y-74371608D01*
X92596994Y-74395004D01*
X92605176Y-74408398D01*
X92617041Y-74416545D01*
X92624638Y-74420144D01*
X92656898Y-74432452D01*
X92675889Y-74436514D01*
X92682164Y-74422948D01*
X92685994Y-74381934D01*
X92687400Y-74312999D01*
X92686402Y-74215669D01*
X92686092Y-74200657D01*
X92683899Y-74111859D01*
X92681307Y-74047019D01*
X92677618Y-74001067D01*
X92672136Y-73968935D01*
X92664165Y-73945553D01*
X92653007Y-73925852D01*
X92647170Y-73917410D01*
X92613704Y-73880057D01*
X92576273Y-73851003D01*
X92571691Y-73848467D01*
X92504574Y-73828443D01*
X92434074Y-73831755D01*
G36*
X92924256Y-73832968D02*
X92867384Y-73854087D01*
X92866733Y-73854493D01*
X92831560Y-73880380D01*
X92805593Y-73910633D01*
X92787330Y-73950058D01*
X92775268Y-74003462D01*
X92767904Y-74075651D01*
X92763736Y-74171432D01*
X92763371Y-74185078D01*
X92758124Y-74390842D01*
X92802284Y-74413678D01*
X92834237Y-74429110D01*
X92853530Y-74436423D01*
X92854422Y-74436514D01*
X92857761Y-74423022D01*
X92860413Y-74386626D01*
X92862044Y-74333452D01*
X92862400Y-74290393D01*
X92862408Y-74220641D01*
X92865597Y-74176837D01*
X92876712Y-74155944D01*
X92900499Y-74154925D01*
X92941704Y-74170741D01*
X93003914Y-74199815D01*
X93049659Y-74223963D01*
X93073187Y-74244913D01*
X93080104Y-74267747D01*
X93080114Y-74268877D01*
X93068701Y-74308212D01*
X93034908Y-74329462D01*
X92983191Y-74332539D01*
X92945939Y-74332006D01*
X92926297Y-74342735D01*
X92914048Y-74368505D01*
X92906998Y-74401337D01*
X92917158Y-74419966D01*
X92920983Y-74422632D01*
X92956999Y-74433340D01*
X93007434Y-74434856D01*
X93059374Y-74427759D01*
X93096178Y-74414788D01*
X93147062Y-74371585D01*
X93175986Y-74311446D01*
X93181714Y-74264462D01*
X93177343Y-74222082D01*
X93161525Y-74187488D01*
X93130203Y-74156763D01*
X93079322Y-74125990D01*
X93004824Y-74091252D01*
X93000286Y-74089288D01*
X92933179Y-74058287D01*
X92891768Y-74032862D01*
X92874019Y-74010014D01*
X92877893Y-73986745D01*
X92901357Y-73960056D01*
X92908373Y-73953914D01*
X92955370Y-73930100D01*
X93004067Y-73931103D01*
X93046478Y-73954451D01*
X93074616Y-73997675D01*
X93077231Y-74006160D01*
X93102692Y-74047308D01*
X93134999Y-74067128D01*
X93181714Y-74086770D01*
X93181714Y-74035950D01*
X93167504Y-73962082D01*
X93125325Y-73894327D01*
X93103376Y-73871661D01*
X93053483Y-73842569D01*
X92990033Y-73829400D01*
X92924256Y-73832968D01*
X92924256Y-73832968D01*
G37*
X92924256Y-73832968D02*
X92867384Y-73854087D01*
X92866733Y-73854493D01*
X92831560Y-73880380D01*
X92805593Y-73910633D01*
X92787330Y-73950058D01*
X92775268Y-74003462D01*
X92767904Y-74075651D01*
X92763736Y-74171432D01*
X92763371Y-74185078D01*
X92758124Y-74390842D01*
X92802284Y-74413678D01*
X92834237Y-74429110D01*
X92853530Y-74436423D01*
X92854422Y-74436514D01*
X92857761Y-74423022D01*
X92860413Y-74386626D01*
X92862044Y-74333452D01*
X92862400Y-74290393D01*
X92862408Y-74220641D01*
X92865597Y-74176837D01*
X92876712Y-74155944D01*
X92900499Y-74154925D01*
X92941704Y-74170741D01*
X93003914Y-74199815D01*
X93049659Y-74223963D01*
X93073187Y-74244913D01*
X93080104Y-74267747D01*
X93080114Y-74268877D01*
X93068701Y-74308212D01*
X93034908Y-74329462D01*
X92983191Y-74332539D01*
X92945939Y-74332006D01*
X92926297Y-74342735D01*
X92914048Y-74368505D01*
X92906998Y-74401337D01*
X92917158Y-74419966D01*
X92920983Y-74422632D01*
X92956999Y-74433340D01*
X93007434Y-74434856D01*
X93059374Y-74427759D01*
X93096178Y-74414788D01*
X93147062Y-74371585D01*
X93175986Y-74311446D01*
X93181714Y-74264462D01*
X93177343Y-74222082D01*
X93161525Y-74187488D01*
X93130203Y-74156763D01*
X93079322Y-74125990D01*
X93004824Y-74091252D01*
X93000286Y-74089288D01*
X92933179Y-74058287D01*
X92891768Y-74032862D01*
X92874019Y-74010014D01*
X92877893Y-73986745D01*
X92901357Y-73960056D01*
X92908373Y-73953914D01*
X92955370Y-73930100D01*
X93004067Y-73931103D01*
X93046478Y-73954451D01*
X93074616Y-73997675D01*
X93077231Y-74006160D01*
X93102692Y-74047308D01*
X93134999Y-74067128D01*
X93181714Y-74086770D01*
X93181714Y-74035950D01*
X93167504Y-73962082D01*
X93125325Y-73894327D01*
X93103376Y-73871661D01*
X93053483Y-73842569D01*
X92990033Y-73829400D01*
X92924256Y-73832968D01*
G36*
X93588114Y-73733289D02*
X93583861Y-73792613D01*
X93578975Y-73827572D01*
X93572205Y-73842820D01*
X93562298Y-73843015D01*
X93559086Y-73841195D01*
X93516356Y-73828015D01*
X93460773Y-73828785D01*
X93404263Y-73842333D01*
X93368918Y-73859861D01*
X93332679Y-73887861D01*
X93306187Y-73919549D01*
X93288001Y-73959813D01*
X93276678Y-74013543D01*
X93270778Y-74085626D01*
X93268857Y-74180951D01*
X93268823Y-74199237D01*
X93268800Y-74404646D01*
X93314509Y-74420580D01*
X93346973Y-74431420D01*
X93364785Y-74436468D01*
X93365309Y-74436514D01*
X93367063Y-74422828D01*
X93368556Y-74385076D01*
X93369674Y-74328224D01*
X93370303Y-74257234D01*
X93370400Y-74214073D01*
X93370602Y-74128973D01*
X93371642Y-74067981D01*
X93374169Y-74026177D01*
X93378836Y-73998642D01*
X93386293Y-73980456D01*
X93397189Y-73966698D01*
X93403993Y-73960073D01*
X93450728Y-73933375D01*
X93501728Y-73931375D01*
X93547999Y-73953955D01*
X93556556Y-73962107D01*
X93569107Y-73977436D01*
X93577812Y-73995618D01*
X93583369Y-74021909D01*
X93586474Y-74061562D01*
X93587824Y-74119832D01*
X93588114Y-74200173D01*
X93588114Y-74404646D01*
X93633823Y-74420580D01*
X93666287Y-74431420D01*
X93684099Y-74436468D01*
X93684623Y-74436514D01*
X93685963Y-74422623D01*
X93687172Y-74383439D01*
X93688199Y-74322700D01*
X93688998Y-74244141D01*
X93689519Y-74151498D01*
X93689714Y-74048509D01*
X93689714Y-73651342D01*
X93642543Y-73631444D01*
X93595371Y-73611547D01*
X93588114Y-73733289D01*
X93588114Y-73733289D01*
G37*
X93588114Y-73733289D02*
X93583861Y-73792613D01*
X93578975Y-73827572D01*
X93572205Y-73842820D01*
X93562298Y-73843015D01*
X93559086Y-73841195D01*
X93516356Y-73828015D01*
X93460773Y-73828785D01*
X93404263Y-73842333D01*
X93368918Y-73859861D01*
X93332679Y-73887861D01*
X93306187Y-73919549D01*
X93288001Y-73959813D01*
X93276678Y-74013543D01*
X93270778Y-74085626D01*
X93268857Y-74180951D01*
X93268823Y-74199237D01*
X93268800Y-74404646D01*
X93314509Y-74420580D01*
X93346973Y-74431420D01*
X93364785Y-74436468D01*
X93365309Y-74436514D01*
X93367063Y-74422828D01*
X93368556Y-74385076D01*
X93369674Y-74328224D01*
X93370303Y-74257234D01*
X93370400Y-74214073D01*
X93370602Y-74128973D01*
X93371642Y-74067981D01*
X93374169Y-74026177D01*
X93378836Y-73998642D01*
X93386293Y-73980456D01*
X93397189Y-73966698D01*
X93403993Y-73960073D01*
X93450728Y-73933375D01*
X93501728Y-73931375D01*
X93547999Y-73953955D01*
X93556556Y-73962107D01*
X93569107Y-73977436D01*
X93577812Y-73995618D01*
X93583369Y-74021909D01*
X93586474Y-74061562D01*
X93587824Y-74119832D01*
X93588114Y-74200173D01*
X93588114Y-74404646D01*
X93633823Y-74420580D01*
X93666287Y-74431420D01*
X93684099Y-74436468D01*
X93684623Y-74436514D01*
X93685963Y-74422623D01*
X93687172Y-74383439D01*
X93688199Y-74322700D01*
X93688998Y-74244141D01*
X93689519Y-74151498D01*
X93689714Y-74048509D01*
X93689714Y-73651342D01*
X93642543Y-73631444D01*
X93595371Y-73611547D01*
X93588114Y-73733289D01*
G36*
X94795697Y-73813239D02*
X94738473Y-73851735D01*
X94694251Y-73907335D01*
X94667833Y-73978086D01*
X94662490Y-74030162D01*
X94663097Y-74051893D01*
X94668178Y-74068531D01*
X94682145Y-74083437D01*
X94709411Y-74099973D01*
X94754388Y-74121498D01*
X94821489Y-74151374D01*
X94821829Y-74151524D01*
X94883593Y-74179813D01*
X94934241Y-74204933D01*
X94968596Y-74224179D01*
X94981482Y-74234848D01*
X94981486Y-74234934D01*
X94970128Y-74258166D01*
X94943569Y-74283774D01*
X94913077Y-74302221D01*
X94897630Y-74305886D01*
X94855485Y-74293212D01*
X94819192Y-74261471D01*
X94801483Y-74226572D01*
X94784448Y-74200845D01*
X94751078Y-74171546D01*
X94711851Y-74146235D01*
X94677244Y-74132471D01*
X94670007Y-74131714D01*
X94661861Y-74144160D01*
X94661370Y-74175972D01*
X94667357Y-74218866D01*
X94678643Y-74264558D01*
X94694050Y-74304761D01*
X94694829Y-74306322D01*
X94741196Y-74371062D01*
X94801289Y-74415097D01*
X94869535Y-74436711D01*
X94940362Y-74434185D01*
X95008196Y-74405804D01*
X95011212Y-74403808D01*
X95064573Y-74355448D01*
X95099660Y-74292352D01*
X95119078Y-74209387D01*
X95121684Y-74186078D01*
X95126299Y-74076055D01*
X95120767Y-74024748D01*
X94981486Y-74024748D01*
X94979676Y-74056753D01*
X94969778Y-74066093D01*
X94945102Y-74059105D01*
X94906205Y-74042587D01*
X94862725Y-74021881D01*
X94861644Y-74021333D01*
X94824791Y-74001949D01*
X94810000Y-73989013D01*
X94813647Y-73975451D01*
X94829005Y-73957632D01*
X94868077Y-73931845D01*
X94910154Y-73929950D01*
X94947897Y-73948717D01*
X94973966Y-73984915D01*
X94981486Y-74024748D01*
X95120767Y-74024748D01*
X95116806Y-73988027D01*
X95092450Y-73918212D01*
X95058544Y-73869302D01*
X94997347Y-73819878D01*
X94929937Y-73795359D01*
X94861120Y-73793797D01*
X94795697Y-73813239D01*
X94795697Y-73813239D01*
G37*
X94795697Y-73813239D02*
X94738473Y-73851735D01*
X94694251Y-73907335D01*
X94667833Y-73978086D01*
X94662490Y-74030162D01*
X94663097Y-74051893D01*
X94668178Y-74068531D01*
X94682145Y-74083437D01*
X94709411Y-74099973D01*
X94754388Y-74121498D01*
X94821489Y-74151374D01*
X94821829Y-74151524D01*
X94883593Y-74179813D01*
X94934241Y-74204933D01*
X94968596Y-74224179D01*
X94981482Y-74234848D01*
X94981486Y-74234934D01*
X94970128Y-74258166D01*
X94943569Y-74283774D01*
X94913077Y-74302221D01*
X94897630Y-74305886D01*
X94855485Y-74293212D01*
X94819192Y-74261471D01*
X94801483Y-74226572D01*
X94784448Y-74200845D01*
X94751078Y-74171546D01*
X94711851Y-74146235D01*
X94677244Y-74132471D01*
X94670007Y-74131714D01*
X94661861Y-74144160D01*
X94661370Y-74175972D01*
X94667357Y-74218866D01*
X94678643Y-74264558D01*
X94694050Y-74304761D01*
X94694829Y-74306322D01*
X94741196Y-74371062D01*
X94801289Y-74415097D01*
X94869535Y-74436711D01*
X94940362Y-74434185D01*
X95008196Y-74405804D01*
X95011212Y-74403808D01*
X95064573Y-74355448D01*
X95099660Y-74292352D01*
X95119078Y-74209387D01*
X95121684Y-74186078D01*
X95126299Y-74076055D01*
X95120767Y-74024748D01*
X94981486Y-74024748D01*
X94979676Y-74056753D01*
X94969778Y-74066093D01*
X94945102Y-74059105D01*
X94906205Y-74042587D01*
X94862725Y-74021881D01*
X94861644Y-74021333D01*
X94824791Y-74001949D01*
X94810000Y-73989013D01*
X94813647Y-73975451D01*
X94829005Y-73957632D01*
X94868077Y-73931845D01*
X94910154Y-73929950D01*
X94947897Y-73948717D01*
X94973966Y-73984915D01*
X94981486Y-74024748D01*
X95120767Y-74024748D01*
X95116806Y-73988027D01*
X95092450Y-73918212D01*
X95058544Y-73869302D01*
X94997347Y-73819878D01*
X94929937Y-73795359D01*
X94861120Y-73793797D01*
X94795697Y-73813239D01*
G36*
X95922885Y-73803962D02*
X95854855Y-73839733D01*
X95804649Y-73897301D01*
X95786815Y-73934312D01*
X95772937Y-73989882D01*
X95765833Y-74060096D01*
X95765160Y-74136727D01*
X95770573Y-74211552D01*
X95781730Y-74276342D01*
X95798286Y-74322873D01*
X95803374Y-74330887D01*
X95863645Y-74390707D01*
X95935231Y-74426535D01*
X96012908Y-74437020D01*
X96091452Y-74420810D01*
X96113311Y-74411092D01*
X96155878Y-74381143D01*
X96193237Y-74341433D01*
X96196768Y-74336397D01*
X96211119Y-74312124D01*
X96220606Y-74286178D01*
X96226210Y-74252022D01*
X96228914Y-74203119D01*
X96229701Y-74132935D01*
X96229714Y-74117200D01*
X96229678Y-74112192D01*
X96084571Y-74112192D01*
X96083727Y-74178430D01*
X96080404Y-74222386D01*
X96073417Y-74250779D01*
X96061584Y-74270325D01*
X96055543Y-74276857D01*
X96020814Y-74301680D01*
X95987097Y-74300548D01*
X95953005Y-74279016D01*
X95932671Y-74256029D01*
X95920629Y-74222478D01*
X95913866Y-74169569D01*
X95913402Y-74163399D01*
X95912248Y-74067513D01*
X95924312Y-73996299D01*
X95949430Y-73950194D01*
X95987440Y-73929635D01*
X96001008Y-73928514D01*
X96036636Y-73934152D01*
X96061006Y-73953686D01*
X96075907Y-73991042D01*
X96083125Y-74050150D01*
X96084571Y-74112192D01*
X96229678Y-74112192D01*
X96229174Y-74042413D01*
X96226904Y-73990159D01*
X96221932Y-73953949D01*
X96213287Y-73927299D01*
X96199995Y-73903722D01*
X96197057Y-73899338D01*
X96147687Y-73840249D01*
X96093891Y-73805947D01*
X96028398Y-73792331D01*
X96006158Y-73791665D01*
X95922885Y-73803962D01*
X95922885Y-73803962D01*
G37*
X95922885Y-73803962D02*
X95854855Y-73839733D01*
X95804649Y-73897301D01*
X95786815Y-73934312D01*
X95772937Y-73989882D01*
X95765833Y-74060096D01*
X95765160Y-74136727D01*
X95770573Y-74211552D01*
X95781730Y-74276342D01*
X95798286Y-74322873D01*
X95803374Y-74330887D01*
X95863645Y-74390707D01*
X95935231Y-74426535D01*
X96012908Y-74437020D01*
X96091452Y-74420810D01*
X96113311Y-74411092D01*
X96155878Y-74381143D01*
X96193237Y-74341433D01*
X96196768Y-74336397D01*
X96211119Y-74312124D01*
X96220606Y-74286178D01*
X96226210Y-74252022D01*
X96228914Y-74203119D01*
X96229701Y-74132935D01*
X96229714Y-74117200D01*
X96229678Y-74112192D01*
X96084571Y-74112192D01*
X96083727Y-74178430D01*
X96080404Y-74222386D01*
X96073417Y-74250779D01*
X96061584Y-74270325D01*
X96055543Y-74276857D01*
X96020814Y-74301680D01*
X95987097Y-74300548D01*
X95953005Y-74279016D01*
X95932671Y-74256029D01*
X95920629Y-74222478D01*
X95913866Y-74169569D01*
X95913402Y-74163399D01*
X95912248Y-74067513D01*
X95924312Y-73996299D01*
X95949430Y-73950194D01*
X95987440Y-73929635D01*
X96001008Y-73928514D01*
X96036636Y-73934152D01*
X96061006Y-73953686D01*
X96075907Y-73991042D01*
X96083125Y-74050150D01*
X96084571Y-74112192D01*
X96229678Y-74112192D01*
X96229174Y-74042413D01*
X96226904Y-73990159D01*
X96221932Y-73953949D01*
X96213287Y-73927299D01*
X96199995Y-73903722D01*
X96197057Y-73899338D01*
X96147687Y-73840249D01*
X96093891Y-73805947D01*
X96028398Y-73792331D01*
X96006158Y-73791665D01*
X95922885Y-73803962D01*
G36*
X94247907Y-73809780D02*
X94201328Y-73836723D01*
X94168943Y-73863466D01*
X94145258Y-73891484D01*
X94128941Y-73925748D01*
X94118661Y-73971227D01*
X94113086Y-74032892D01*
X94110884Y-74115711D01*
X94110629Y-74175246D01*
X94110629Y-74394391D01*
X94172314Y-74422044D01*
X94234000Y-74449697D01*
X94241257Y-74209670D01*
X94244256Y-74120028D01*
X94247402Y-74054962D01*
X94251299Y-74010026D01*
X94256553Y-73980770D01*
X94263769Y-73962748D01*
X94273550Y-73951511D01*
X94276688Y-73949079D01*
X94324239Y-73930083D01*
X94372303Y-73937600D01*
X94400914Y-73957543D01*
X94412553Y-73971675D01*
X94420609Y-73990220D01*
X94425729Y-74018334D01*
X94428559Y-74061173D01*
X94429744Y-74123895D01*
X94429943Y-74189261D01*
X94429982Y-74271268D01*
X94431386Y-74329316D01*
X94436086Y-74368465D01*
X94446013Y-74393780D01*
X94463097Y-74410323D01*
X94489268Y-74423156D01*
X94524225Y-74436491D01*
X94562404Y-74451007D01*
X94557859Y-74193389D01*
X94556029Y-74100519D01*
X94553888Y-74031889D01*
X94550819Y-73982711D01*
X94546206Y-73948198D01*
X94539432Y-73923562D01*
X94529881Y-73904016D01*
X94518366Y-73886770D01*
X94462810Y-73831680D01*
X94395020Y-73799822D01*
X94321287Y-73792191D01*
X94247907Y-73809780D01*
X94247907Y-73809780D01*
G37*
X94247907Y-73809780D02*
X94201328Y-73836723D01*
X94168943Y-73863466D01*
X94145258Y-73891484D01*
X94128941Y-73925748D01*
X94118661Y-73971227D01*
X94113086Y-74032892D01*
X94110884Y-74115711D01*
X94110629Y-74175246D01*
X94110629Y-74394391D01*
X94172314Y-74422044D01*
X94234000Y-74449697D01*
X94241257Y-74209670D01*
X94244256Y-74120028D01*
X94247402Y-74054962D01*
X94251299Y-74010026D01*
X94256553Y-73980770D01*
X94263769Y-73962748D01*
X94273550Y-73951511D01*
X94276688Y-73949079D01*
X94324239Y-73930083D01*
X94372303Y-73937600D01*
X94400914Y-73957543D01*
X94412553Y-73971675D01*
X94420609Y-73990220D01*
X94425729Y-74018334D01*
X94428559Y-74061173D01*
X94429744Y-74123895D01*
X94429943Y-74189261D01*
X94429982Y-74271268D01*
X94431386Y-74329316D01*
X94436086Y-74368465D01*
X94446013Y-74393780D01*
X94463097Y-74410323D01*
X94489268Y-74423156D01*
X94524225Y-74436491D01*
X94562404Y-74451007D01*
X94557859Y-74193389D01*
X94556029Y-74100519D01*
X94553888Y-74031889D01*
X94550819Y-73982711D01*
X94546206Y-73948198D01*
X94539432Y-73923562D01*
X94529881Y-73904016D01*
X94518366Y-73886770D01*
X94462810Y-73831680D01*
X94395020Y-73799822D01*
X94321287Y-73792191D01*
X94247907Y-73809780D01*
G36*
X95364256Y-73801918D02*
X95308799Y-73829568D01*
X95259852Y-73880480D01*
X95246371Y-73899338D01*
X95231686Y-73924015D01*
X95222158Y-73950816D01*
X95216707Y-73986587D01*
X95214253Y-74038169D01*
X95213714Y-74106267D01*
X95216148Y-74199588D01*
X95224606Y-74269657D01*
X95240826Y-74321931D01*
X95266546Y-74361869D01*
X95303503Y-74394929D01*
X95306218Y-74396886D01*
X95342640Y-74416908D01*
X95386498Y-74426815D01*
X95442276Y-74429257D01*
X95532952Y-74429257D01*
X95532990Y-74517283D01*
X95533834Y-74566308D01*
X95538976Y-74595065D01*
X95552413Y-74612311D01*
X95578142Y-74626808D01*
X95584321Y-74629769D01*
X95613236Y-74643648D01*
X95635624Y-74652414D01*
X95652271Y-74653171D01*
X95663964Y-74643023D01*
X95671490Y-74619073D01*
X95675634Y-74578426D01*
X95677185Y-74518186D01*
X95676929Y-74435455D01*
X95675651Y-74327339D01*
X95675252Y-74295000D01*
X95673815Y-74183524D01*
X95672528Y-74110603D01*
X95533029Y-74110603D01*
X95532245Y-74172499D01*
X95528760Y-74212997D01*
X95520876Y-74239708D01*
X95506895Y-74260244D01*
X95497403Y-74270260D01*
X95458596Y-74299567D01*
X95424237Y-74301952D01*
X95388784Y-74277750D01*
X95387886Y-74276857D01*
X95373461Y-74258153D01*
X95364687Y-74232732D01*
X95360261Y-74193584D01*
X95358882Y-74133697D01*
X95358857Y-74120430D01*
X95362188Y-74037901D01*
X95373031Y-73980691D01*
X95392660Y-73945766D01*
X95422350Y-73930094D01*
X95439509Y-73928514D01*
X95480234Y-73935926D01*
X95508168Y-73960330D01*
X95524983Y-74004980D01*
X95532350Y-74073130D01*
X95533029Y-74110603D01*
X95672528Y-74110603D01*
X95672292Y-74097245D01*
X95670323Y-74032333D01*
X95667550Y-73984958D01*
X95663612Y-73951290D01*
X95658151Y-73927498D01*
X95650808Y-73909753D01*
X95641223Y-73894224D01*
X95637113Y-73888381D01*
X95582595Y-73833185D01*
X95513664Y-73801890D01*
X95433928Y-73793165D01*
X95364256Y-73801918D01*
X95364256Y-73801918D01*
G37*
X95364256Y-73801918D02*
X95308799Y-73829568D01*
X95259852Y-73880480D01*
X95246371Y-73899338D01*
X95231686Y-73924015D01*
X95222158Y-73950816D01*
X95216707Y-73986587D01*
X95214253Y-74038169D01*
X95213714Y-74106267D01*
X95216148Y-74199588D01*
X95224606Y-74269657D01*
X95240826Y-74321931D01*
X95266546Y-74361869D01*
X95303503Y-74394929D01*
X95306218Y-74396886D01*
X95342640Y-74416908D01*
X95386498Y-74426815D01*
X95442276Y-74429257D01*
X95532952Y-74429257D01*
X95532990Y-74517283D01*
X95533834Y-74566308D01*
X95538976Y-74595065D01*
X95552413Y-74612311D01*
X95578142Y-74626808D01*
X95584321Y-74629769D01*
X95613236Y-74643648D01*
X95635624Y-74652414D01*
X95652271Y-74653171D01*
X95663964Y-74643023D01*
X95671490Y-74619073D01*
X95675634Y-74578426D01*
X95677185Y-74518186D01*
X95676929Y-74435455D01*
X95675651Y-74327339D01*
X95675252Y-74295000D01*
X95673815Y-74183524D01*
X95672528Y-74110603D01*
X95533029Y-74110603D01*
X95532245Y-74172499D01*
X95528760Y-74212997D01*
X95520876Y-74239708D01*
X95506895Y-74260244D01*
X95497403Y-74270260D01*
X95458596Y-74299567D01*
X95424237Y-74301952D01*
X95388784Y-74277750D01*
X95387886Y-74276857D01*
X95373461Y-74258153D01*
X95364687Y-74232732D01*
X95360261Y-74193584D01*
X95358882Y-74133697D01*
X95358857Y-74120430D01*
X95362188Y-74037901D01*
X95373031Y-73980691D01*
X95392660Y-73945766D01*
X95422350Y-73930094D01*
X95439509Y-73928514D01*
X95480234Y-73935926D01*
X95508168Y-73960330D01*
X95524983Y-74004980D01*
X95532350Y-74073130D01*
X95533029Y-74110603D01*
X95672528Y-74110603D01*
X95672292Y-74097245D01*
X95670323Y-74032333D01*
X95667550Y-73984958D01*
X95663612Y-73951290D01*
X95658151Y-73927498D01*
X95650808Y-73909753D01*
X95641223Y-73894224D01*
X95637113Y-73888381D01*
X95582595Y-73833185D01*
X95513664Y-73801890D01*
X95433928Y-73793165D01*
X95364256Y-73801918D01*
M02*
