G04 #@! TF.GenerationSoftware,KiCad,Pcbnew,(5.0.0-rc2-dev-321-g78161b592)*
G04 #@! TF.CreationDate,2018-04-15T21:01:51-04:00*
G04 #@! TF.ProjectId,VideoDACRAM,566964656F44414352414D2E6B696361,rev?*
G04 #@! TF.SameCoordinates,Original*
G04 #@! TF.FileFunction,Soldermask,Bot*
G04 #@! TF.FilePolarity,Negative*
%FSLAX46Y46*%
G04 Gerber Fmt 4.6, Leading zero omitted, Abs format (unit mm)*
G04 Created by KiCad (PCBNEW (5.0.0-rc2-dev-321-g78161b592)) date 04/15/18 21:01:51*
%MOMM*%
%LPD*%
G01*
G04 APERTURE LIST*
%ADD10C,2.800000*%
%ADD11C,3.800000*%
%ADD12R,2.100000X2.100000*%
%ADD13O,2.100000X2.100000*%
G04 APERTURE END LIST*
D10*
X129540000Y-57332000D03*
D11*
X129540000Y-52832000D03*
X134540000Y-57332000D03*
X124540000Y-57332000D03*
D12*
X138500000Y-83500000D03*
D13*
X138500000Y-86040000D03*
X135960000Y-83500000D03*
X135960000Y-86040000D03*
X133420000Y-83500000D03*
X133420000Y-86040000D03*
X130880000Y-83500000D03*
X130880000Y-86040000D03*
X128340000Y-83500000D03*
X128340000Y-86040000D03*
X125800000Y-83500000D03*
X125800000Y-86040000D03*
X123260000Y-83500000D03*
X123260000Y-86040000D03*
X120720000Y-83500000D03*
X120720000Y-86040000D03*
X118180000Y-83500000D03*
X118180000Y-86040000D03*
X115640000Y-83500000D03*
X115640000Y-86040000D03*
X113100000Y-83500000D03*
X113100000Y-86040000D03*
X110560000Y-83500000D03*
X110560000Y-86040000D03*
X108020000Y-83500000D03*
X108020000Y-86040000D03*
X105480000Y-83500000D03*
X105480000Y-86040000D03*
X102940000Y-83500000D03*
X102940000Y-86040000D03*
X100400000Y-83500000D03*
X100400000Y-86040000D03*
X97860000Y-83500000D03*
X97860000Y-86040000D03*
X95320000Y-83500000D03*
X95320000Y-86040000D03*
X92780000Y-83500000D03*
X92780000Y-86040000D03*
X90240000Y-83500000D03*
X90240000Y-86040000D03*
M02*
